<?xml version="1.0" encoding="UTF-8" standalone="no"?>
<!-- Created with Inkscape (http://www.inkscape.org/) -->

<svg
   xmlns:dc="http://purl.org/dc/elements/1.1/"
   xmlns:cc="http://creativecommons.org/ns#"
   xmlns:rdf="http://www.w3.org/1999/02/22-rdf-syntax-ns#"
   xmlns:svg="http://www.w3.org/2000/svg"
   xmlns="http://www.w3.org/2000/svg"
   xmlns:sodipodi="http://sodipodi.sourceforge.net/DTD/sodipodi-0.dtd"
   xmlns:inkscape="http://www.inkscape.org/namespaces/inkscape"
   version="1.1"
   id="svg4537"
   xml:space="preserve"
   width="436.04001"
   height="436.04001"
   viewBox="0 0 436.04001 436.04001"
   sodipodi:docname="Facebook-icon.svg"
   inkscape:version="0.92.4 5da689c313, 2019-01-14"><metadata
     id="metadata4543"><rdf:RDF><cc:Work
         rdf:about=""><dc:format>image/svg+xml</dc:format><dc:type
           rdf:resource="http://purl.org/dc/dcmitype/StillImage" /><dc:title></dc:title></cc:Work></rdf:RDF></metadata><defs
     id="defs4541" /><sodipodi:namedview
     pagecolor="#ffffff"
     bordercolor="#666666"
     borderopacity="1"
     objecttolerance="10"
     gridtolerance="10"
     guidetolerance="10"
     inkscape:pageopacity="0"
     inkscape:pageshadow="2"
     inkscape:window-width="2560"
     inkscape:window-height="1419"
     id="namedview4539"
     showgrid="false"
     inkscape:zoom="1.410421"
     inkscape:cx="107.51607"
     inkscape:cy="164.17979"
     inkscape:window-x="0"
     inkscape:window-y="21"
     inkscape:window-maximized="1"
     inkscape:current-layer="g4545" /><g
     id="g4545"
     inkscape:groupmode="layer"
     inkscape:label="ink_ext_XXXXXX"
     transform="matrix(1.3333333,0,0,-1.3333333,0,436.04)"><path
       inkscape:connector-curvature="0"
       id="path4549"
       style="fill:#ffffff;fill-opacity:1;fill-rule:nonzero;stroke:none;stroke-width:0.1"
       d="M 284.02451,327.031 H 45.129512 c -24.3359,0 -44.0659998,-19.73 -44.0659998,-44.066 V 44.0699 c 0,-24.339 19.7300998,-44.06599375 44.0659998,-44.06599375 H 162.95051 L 163.15351,116.863 h -30.363 c -3.946,0 -7.149,3.192 -7.161,7.137 l -0.148,37.672 c -0.016,3.965 3.199,7.191 7.164,7.191 h 30.309 v 36.399 c 0,42.238 25.797,65.238 63.476,65.238 h 30.922 c 3.953,0 7.164,-3.207 7.164,-7.164 v -31.762 c 0,-3.957 -3.207,-7.164 -7.16,-7.164 l -18.977,-0.011 c -20.492,0 -24.461,-9.735 -24.461,-24.028 V 168.86 h 45.028 c 4.293,0 7.621,-3.747 7.113,-8.004 l -4.465,-37.672 c -0.426,-3.606 -3.484,-6.321 -7.113,-6.321 h -40.359 L 213.91851,0 h 70.106 c 24.336,0 44.066,19.7309 44.066,44.0672 V 282.965 c 0,24.336 -19.73,44.066 -44.066,44.066 v 0" /></g></svg>