<?xml version="1.0" encoding="UTF-8"?>
<svg width="21px" height="21px" viewBox="0 0 21 21" version="1.1" xmlns="http://www.w3.org/2000/svg" xmlns:xlink="http://www.w3.org/1999/xlink">
    <!-- Generator: Sketch 53.2 (72643) - https://sketchapp.com -->
    <title>Geolocate-icon</title>
    <desc>Created with Sketch.</desc>
    <g id="Page-1" stroke="none" stroke-width="1" fill="none" fill-rule="evenodd">
        <g id="Geo-location-V2" transform="translate(-693.000000, -711.000000)" stroke="#7E8593" stroke-width="1.5">
            <g id="Search-bar" transform="translate(121.000000, 262.000000)">
                <g id="Location-lists">
                    <g id="Loqate-search---bottom-bar" transform="translate(0.000000, 442.000000)">
                        <g id="Geolocate-icon" transform="translate(573.000000, 8.000000)">
                            <path d="M9.5,4.5 L9.5,0.247583333" id="Line" stroke-linecap="round"></path>
                            <path d="M9.5,18.5 L9.5,14.2475833" id="Line-Copy" stroke-linecap="round"></path>
                            <path d="M2.5,11.5 L2.5,7.24758333" id="Line-Copy-3" stroke-linecap="round" transform="translate(2.500000, 9.373792) rotate(-90.000000) translate(-2.500000, -9.373792) "></path>
                            <path d="M16.5,11.5 L16.5,7.24758333" id="Line-Copy-2" stroke-linecap="round" transform="translate(16.500000, 9.373792) rotate(-90.000000) translate(-16.500000, -9.373792) "></path>
                            <polygon id="Polygon" points="9.5 2 15.9951905 5.75 15.9951905 13.25 9.5 17 3.00480947 13.25 3.00480947 5.75"></polygon>
                            <polygon id="Polygon-Copy" points="9.5 7 11.6650635 8.25 11.6650635 10.75 9.5 12 7.33493649 10.75 7.33493649 8.25"></polygon>
                        </g>
                    </g>
                </g>
            </g>
        </g>
    </g>
</svg>