<svg xmlns="http://www.w3.org/2000/svg" class="sprd-icons" style="display: none;">
<symbol id="align-center" viewBox="0 0 28 28"><title>align-center icon</title><path d="M1 0h26v2H1zM7 6.5h14v2H7zM0 13h28v2H0zM0 26h28v2H0zM4 19.5h20v2H4z"/></symbol>
<symbol id="align-horizontal" viewBox="0 0 27.98 20"><title>align-horizontal icon</title><path d="M21.26 14.25l1.41-1.41L20.84 11H28V9h-7.18l1.85-1.85-1.41-1.41L17 10zM6.72 5.74L5.31 7.15 7.14 9H0v2h7.16l-1.85 1.83 1.41 1.42L11 10zM13 0h2v20h-2z"/></symbol>
<symbol id="align-left" viewBox="0 0 28 28"><title>align-left icon</title><path d="M0 0h26v2H0zM0 6.5h14v2H0zM0 13h28v2H0zM0 26h28v2H0zM0 19.5h20v2H0z"/></symbol>
<symbol id="align-right" viewBox="0 0 28 28"><title>align-right icon</title><path d="M2 0h26v2H2zM14 6.5h14v2H14zM0 13h28v2H0zM0 26h28v2H0zM8 19.5h20v2H8z"/></symbol>
<symbol id="align-vertical" viewBox="0 0 20 27.98"><title>align-vertical icon</title><path d="M5.75 21.26l1.41 1.41L9 20.84V28h2v-7.18l1.85 1.85 1.42-1.41L10 17zM14.26 6.72l-1.41-1.41L11 7.14V0H9v7.16L7.17 5.31 5.75 6.72 10 11zM0 13h20v2H0z"/></symbol>
<symbol id="baby" viewBox="0 0 26.11 26.16"><title>baby icon</title><path d="M17.6,12.12A1.5,1.5,0,1,0,19,13.68,1.5,1.5,0,0,0,17.6,12.12Z"/><path d="M8.51,15.12a1.5,1.5,0,1,0-1.44-1.56A1.51,1.51,0,0,0,8.51,15.12Z"/><path d="M25.3,12.79A2.9,2.9,0,0,0,23.81,12a11.16,11.16,0,0,0-8.66-8.06,2.78,2.78,0,0,0,0-2.14A2.94,2.94,0,0,0,11.34.23a1,1,0,1,0,.74,1.85,1,1,0,0,1,1.26.41.94.94,0,0,1-.63,1.17h0A11.21,11.21,0,0,0,4.75,7.23,10.71,10.71,0,0,0,3.48,8.87a11.33,11.33,0,0,0-.73,1.32,12.08,12.08,0,0,0-.63,1.75,2.84,2.84,0,0,0-1.2.69,2.94,2.94,0,0,0-.11,4.16A2.82,2.82,0,0,0,2,17.57a11.25,11.25,0,0,0,19,5.19A10.75,10.75,0,0,0,22.45,21a12.91,12.91,0,0,0,.92-1.77,10.15,10.15,0,0,0,.5-1.53A2.94,2.94,0,0,0,25.19,17a3,3,0,0,0,.92-2.07A2.94,2.94,0,0,0,25.3,12.79ZM23.81,15.5a1,1,0,0,1-.71.26l-.88-.06-.16.88a8.94,8.94,0,0,1-1.3,3.31,9.83,9.83,0,0,1-1.16,1.48A9.26,9.26,0,0,1,3.86,16.54l-.14-.8-.81,0a.93.93,0,0,1-.65-.29,1,1,0,0,1,0-1.34,1,1,0,0,1,.65-.25h.81L3.92,13a8.85,8.85,0,0,1,.65-2,8.31,8.31,0,0,1,.6-1.09,8.43,8.43,0,0,1,1-1.34A9.24,9.24,0,0,1,22,13.08l.18.87.88-.07a1,1,0,0,1,.77.28,1,1,0,0,1,.26.68A.93.93,0,0,1,23.81,15.5Z"/><path d="M17.32,17.48a4.1,4.1,0,0,1-.88.4,3.52,3.52,0,0,0-6.78,0,7.6,7.6,0,0,1-.94-.36,1,1,0,1,0-.86,1.81,9.78,9.78,0,0,0,1.85.61,3.51,3.51,0,0,0,6.68,0,6.64,6.64,0,0,0,1.93-.76,1,1,0,0,0-1-1.73Zm-4.27,2.89a1.54,1.54,0,1,1,1.54-1.54A1.54,1.54,0,0,1,13.05,20.37Z"/></symbol>
<symbol id="bag" viewBox="0 0 20 27.5"><title>bag icon</title><path d="M15 7.5V5A5 5 0 0 0 5 5v2.5H0v17a3 3 0 0 0 3 3h14a3 3 0 0 0 3-3v-17zM7 5a3 3 0 0 1 6 0v2.5H7zm11 19.5a1 1 0 0 1-1 1H3a1 1 0 0 1-1-1v-15h3V14a1 1 0 0 0 2 0V9.5h6V14a1 1 0 0 0 2 0V9.5h3z"/></symbol>
<symbol id="brush" viewBox="0 0 26.26 26.02"><title>brush icon</title><path d="M26.17 2.14a3.05 3.05 0 0 0-.72-1.25 3.65 3.65 0 0 0-1.64-.83 1.69 1.69 0 0 0-1.59.39L6.91 14.4a4 4 0 0 0-2.48.7 5.62 5.62 0 0 0-2.09 4.19 8.14 8.14 0 0 1-1.71 4c-.18.26-.34.48-.44.66a1.38 1.38 0 0 0 0 1.39 1.41 1.41 0 0 0 1.23.66c4.65-.05 7.82-1.11 9.42-3.14a4.9 4.9 0 0 0 1.08-3.21L25.83 3.79a1.69 1.69 0 0 0 .34-1.65zM9.4 21.78c-.82 1-2.73 2.22-7.17 2.4a9.77 9.77 0 0 0 1.92-4.67 4 4 0 0 1 1.31-2.9 2.21 2.21 0 0 1 1.22-.4 9 9 0 0 0 1.38 1.85 13 13 0 0 0 2.06 1.75 3.15 3.15 0 0 1-.72 1.97zm0-5a9.39 9.39 0 0 1-1-1.3l2-1.87A12.23 12.23 0 0 0 12.73 16l-1.86 2.12a11.09 11.09 0 0 1-1.48-1.3zm4.54-2.2a10.07 10.07 0 0 1-2.14-2.2L23.4 1.84a1.81 1.81 0 0 1 .76.34 1.16 1.16 0 0 1 .26.46z"/></symbol>
<symbol id="calendar" viewBox="0 0 28 28"><title>calendar icon</title><path d="M25 2h-3V1a1 1 0 0 0-.88-1H20a.94.94 0 0 0-1 .88V2H9V1a1 1 0 0 0-.88-1H7a.94.94 0 0 0-1 .88V2H3a3 3 0 0 0-3 3v20a3 3 0 0 0 3 3h17.4l7.6-7.6V5a3 3 0 0 0-3-3zM3 4h3v1a.94.94 0 0 0 .88 1H8a.93.93 0 0 0 1-.87V4h10v1a.94.94 0 0 0 .88 1H21a.93.93 0 0 0 1-.87V4h3a.94.94 0 0 1 1 .88V9H2V5a1 1 0 0 1 1-1zm18 20.6V22a1 1 0 0 1 .88-1h2.72zm1-5.6a3 3 0 0 0-3 3v4H3a.93.93 0 0 1-1-.87V11h24v8z"/></symbol>
<symbol id="chain" viewBox="0 0 27.21 27.18"><title>chain icon</title><path d="M26.33 3.68L23.51.85a3.09 3.09 0 0 0-4.25 0l-5.65 5.66a3 3 0 0 0 0 4.24l.51.51-2.83 2.83-.51-.51a3 3 0 0 0-4.24 0L.88 19.23a3 3 0 0 0 0 4.25l2.83 2.83a3 3 0 0 0 4.24 0l5.66-5.66a3 3 0 0 0 0-4.24l-.9-.9 2.83-2.83.9.9a3 3 0 0 0 4.24 0l5.66-5.66a3 3 0 0 0-.01-4.24zM12.19 17.82a1 1 0 0 1 0 1.41l-5.65 5.66a1 1 0 0 1-1.42 0l-2.83-2.83a1 1 0 0 1 0-1.41L8 15a1 1 0 0 1 1.41 0l.52.52-.71.7a1 1 0 1 0 1.42 1.42l.7-.71zM24.92 6.51l-5.66 5.65a1 1 0 0 1-1.41 0l-.9-.9.71-.7a1 1 0 0 0-1.42-1.42l-.7.71-.54-.52a1 1 0 0 1 0-1.41l5.66-5.66a1 1 0 0 1 .7-.29 1 1 0 0 1 .71.29l2.83 2.83a1 1 0 0 1 .02 1.42z"/></symbol>
<symbol id="checklist" viewBox="0 0 24.6 28"><title>checklist icon</title><path d="M13.6 20.1l-5.8-5.7L9.2 13l4.4 4.3 9.5-9.5 1.5 1.4zm8.2-13.6V3a3 3 0 0 0-3-3H3a3 3 0 0 0-3 3v22a3 3 0 0 0 3 3h15.8a3 3 0 0 0 3-3V14.7l-2 2.1V25a.94.94 0 0 1-.88 1H3a.94.94 0 0 1-1-.88V3a.94.94 0 0 1 .88-1H18.8a.94.94 0 0 1 1 .88V8.5zM3.9 5h14v2h-14zm4.5 12.6H3.9v-2h2.5zM3.9 21h14v2h-14zm0-10.7h14l-2.1 2H3.9z"/></symbol>
<symbol id="contest" viewBox="0 0 32 32"><title>contest icon</title><path d="M30 5.9c0-.6-.4-1-1-1h-2.7c.1-.8.1-1.5.1-2 0-.6-.4-1-1-1H6.6c-.6 0-1 .4-1 1 0 .5.1 1.2.1 2H3c-.6 0-1 .4-1 1v.2c.1.7 1.3 9 6.7 9.8 1.3 2.7 3.5 5 6.2 6.3V26h-4.1c-.6 0-1 .4-1 1v1h-1c-.6 0-1 .4-1 1v1h16.3v-1c0-.6-.4-1-1-1h-1v-1c0-.6-.4-1-1-1H17v-3.8c2.7-1.3 4.9-3.5 6.2-6.3 5.4-.8 6.6-9.1 6.7-9.8.1-.1.1-.1.1-.2zm-25.8 1H6c.3 2.2.9 4.3 1.6 6.4-2-1.3-3-4.6-3.4-6.4zm11.9 13.5H16C9.5 17.7 8.1 8.2 7.7 4h16.6c-.3 4.2-1.8 13.7-8.2 16.4zm8.3-7c.7-2.1 1.3-4.2 1.6-6.4h1.8c-.4 1.7-1.4 5-3.4 6.4z"/><path d="M15.4 6.2l-1 2.1-2.4.4c-.3 0-.5.2-.6.5-.1.3 0 .6.2.8l1.7 1.6-.4 2.3c-.1.4.2.8.6.8.2 0 .3 0 .5-.1l2.1-1.1 2.1 1.1c.1.1.2.1.3.1.2 0 .3 0 .4-.1.2-.2.3-.4.3-.7l-.4-2.3 1.7-1.6c.2-.2.3-.5.2-.8-.2-.2-.4-.5-.7-.5l-2.3-.3-1.1-2.1c-.2-.4-.6-.5-1-.3-.1 0-.2.1-.2.2z"/></symbol>
<symbol id="contest-1" viewBox="0 0 28 28.02"><title>contest-1 icon</title><path d="M28 4a1 1 0 0 0-1-1h-2.77c.08-.78.13-1.45.15-1.95a1 1 0 0 0-1-1H4.58a1 1 0 0 0-1 1c0 .5.07 1.17.15 2H1A1 1 0 0 0 0 4v.13c.08.65 1.32 9 6.7 9.79a13.32 13.32 0 0 0 6.2 6.29V24H8.84a1 1 0 0 0-1 1v1h-1a1 1 0 0 0-1 1v1h16.31v-1a1 1 0 0 0-1-1h-1v-1a1 1 0 0 0-1-1h-4.1v-3.81a13.28 13.28 0 0 0 6.2-6.29c5.39-.78 6.62-9.14 6.71-9.79A.49.49 0 0 0 28 4zM2.26 5H4a32.89 32.89 0 0 0 1.61 6.41c-2-1.34-3-4.65-3.38-6.4zm11.79 13.43h-.12C7.53 15.73 6 6.21 5.69 2h16.59c-.35 4.21-1.84 13.73-8.23 16.43zm8.31-7.06A33 33 0 0 0 24 5h1.76c-.4 1.71-1.36 5-3.4 6.37z"/><path d="M11.41 6.04v2.34l1.62-1.08v6.07h2.2V4.96h-2.2l-1.62 1.08z"/></symbol>
<symbol id="contest-2" viewBox="0 0 28 28.02"><title>contest-2 icon</title><path d="M11.49 7.45a4 4 0 0 1 2.32-1.07c.61 0 1 .27 1 .72A2.45 2.45 0 0 1 14 8.48l-3.1 3.14v1.45h6.4v-1.76h-3.58l1.72-1.73a4.5 4.5 0 0 0 1.64-2.8c0-1.33-1.24-2.22-2.94-2.22a5.91 5.91 0 0 0-3.48 1.27z"/><path d="M28 4a1 1 0 0 0-1-1h-2.77c.08-.78.13-1.45.15-1.95a1 1 0 0 0-1-1H4.58a1 1 0 0 0-1 1c0 .5.07 1.17.15 2H1A1 1 0 0 0 0 4v.13c.08.65 1.32 9 6.7 9.79a13.32 13.32 0 0 0 6.2 6.29V24H8.84a1 1 0 0 0-1 1v1h-1a1 1 0 0 0-1 1v1h16.31v-1a1 1 0 0 0-1-1h-1v-1a1 1 0 0 0-1-1h-4.1v-3.81a13.28 13.28 0 0 0 6.2-6.29c5.39-.78 6.62-9.14 6.71-9.79A.49.49 0 0 0 28 4zM2.26 5H4a32.89 32.89 0 0 0 1.61 6.41c-2-1.34-3-4.65-3.38-6.4zm11.79 13.43h-.12C7.53 15.73 6 6.21 5.69 2h16.59c-.35 4.21-1.84 13.73-8.23 16.43zm8.31-7.06A33 33 0 0 0 24 5h1.76c-.4 1.71-1.36 5-3.4 6.37z"/></symbol>
<symbol id="contest-3" viewBox="0 0 28 28.02"><title>contest-3 icon</title><path d="M16.93 4.57h-5.88v1.69h3.25l-2 1.88v1.18h1.41c.94 0 1.45.35 1.45 1s-.51 1-1.44 1a3.17 3.17 0 0 1-2.25-1L10.62 12a5.83 5.83 0 0 0 3.31 1c2.09 0 3.42-1.12 3.42-2.74A2.36 2.36 0 0 0 15.08 8h-.42l2.27-2.11z"/><path d="M28 4a1 1 0 0 0-1-1h-2.77c.08-.78.13-1.45.15-1.95a1 1 0 0 0-1-1H4.58a1 1 0 0 0-1 1c0 .5.07 1.17.15 2H1A1 1 0 0 0 0 4v.13c.08.65 1.32 9 6.7 9.79a13.32 13.32 0 0 0 6.2 6.29V24H8.84a1 1 0 0 0-1 1v1h-1a1 1 0 0 0-1 1v1h16.31v-1a1 1 0 0 0-1-1h-1v-1a1 1 0 0 0-1-1h-4.1v-3.81a13.28 13.28 0 0 0 6.2-6.29c5.39-.78 6.62-9.14 6.71-9.79A.49.49 0 0 0 28 4zM2.26 5H4a32.89 32.89 0 0 0 1.61 6.41c-2-1.34-3-4.65-3.38-6.4zm11.79 13.43h-.12C7.53 15.73 6 6.21 5.69 2h16.59c-.35 4.21-1.84 13.73-8.23 16.43zm8.31-7.06A33 33 0 0 0 24 5h1.76c-.4 1.71-1.36 5-3.4 6.37z"/></symbol>
<symbol id="control" viewBox="0 0 28.01 28.01"><title>control icon</title><path d="M5 19.13V0H3v19.13a4 4 0 0 0 0 7.71V28h2v-1.16a4 4 0 0 0 0-7.71zM4 25a2 2 0 1 1 2-2 2 2 0 0 1-2 2zM15 3.18V0h-2v3.18a4 4 0 0 0 0 7.71V28h2V10.89a4 4 0 0 0 0-7.71zM14 9a2 2 0 1 1 2-2 2 2 0 0 1-2 2zM28 14a4 4 0 0 0-3-3.86V0h-2v10.15a4 4 0 0 0 0 7.72V28h2V17.87A4 4 0 0 0 28 14zm-4 2a2 2 0 1 1 2-2 2 2 0 0 1-2 2z"/></symbol>
<symbol id="copy" viewBox="0 0 22 27.97"><title>copy icon</title><path d="M19 0H7.05A3 3 0 0 0 4 3v1H3a3 3 0 0 0-3 3v17.94a3 3 0 0 0 3 3h12a3 3 0 0 0 3-3v-1h1a3 3 0 0 0 3-3V3a3 3 0 0 0-3-3zm-3 24.94A1.06 1.06 0 0 1 15 26H3a1.07 1.07 0 0 1-1-1.06V7.05A1.07 1.07 0 0 1 3 6h12a1.06 1.06 0 0 1 1 1.05zm4-4A1.07 1.07 0 0 1 19 22h-1V7.05a3 3 0 0 0-3-3H6V3a1.07 1.07 0 0 1 1.05-1H19a1.07 1.07 0 0 1 1.05 1z"/></symbol>
<symbol id="dots-drag-handle" viewBox="0 0 12.06 28"><title>dots-drag-handle icon</title><path d="M4 0v4H0V0zM4 8v4H0V8zM4 16v4H0v-4zM4 24v4H0v-4zM12.06 0v4h-4V0zM12.06 8v4h-4V8zM12.06 16v4h-4v-4zM12.06 24v4h-4v-4z"/></symbol>
<symbol id="drop" viewBox="0 0 18.01 28"><title>drop icon</title><path d="M9.76 1L9 0l-.73 1C7.93 1.49 0 12.45 0 19a9 9 0 0 0 18 0c0-6.44-7.9-17.5-8.24-18zM9 26.16A7.16 7.16 0 0 1 1.84 19C1.84 14.15 7 6.06 9 3.17c2 2.91 7.18 11.06 7.18 15.83A7.18 7.18 0 0 1 9 26.16z"/><path d="M12.29 17.21a1.11 1.11 0 0 0-1.1 1.1 3 3 0 0 1-2.94 3 1.1 1.1 0 1 0 0 2.2 5.15 5.15 0 0 0 5.14-5.15 1.1 1.1 0 0 0-1.1-1.15z"/></symbol>
<symbol id="eye-crossed" viewBox="0 0 29.36 21.43"><title>eye-crossed icon</title><path d="M29.16 10.3a18.68 18.68 0 0 0-5.63-7l1.85-1.86L24 0l-2.17 2.14A14.36 14.36 0 0 0 14.68.19C8.7.19 3.15 4.06.2 10.3l-.2.42.2.43a18.87 18.87 0 0 0 5.61 7L4 20l1.41 1.41 2.11-2.11a14.38 14.38 0 0 0 7.16 2c6 0 11.53-3.88 14.48-10.11l.2-.43zm-26.94.42c2.66-5.27 7.4-8.53 12.46-8.53a12.32 12.32 0 0 1 5.68 1.42l-2.17 2.17a6 6 0 0 0-3.51-1.13 6.08 6.08 0 0 0-6.07 6.07 6 6 0 0 0 1.13 3.52l-2.5 2.5a16.62 16.62 0 0 1-5.02-6.02zm16.53 0a4.06 4.06 0 0 1-6.15 3.49l1.56-1.56a2.25 2.25 0 0 0 .52.07 2 2 0 0 0 2-2 1.82 1.82 0 0 0-.08-.52l1.56-1.56a4 4 0 0 1 .59 2.08zm-8.14 0a4.08 4.08 0 0 1 4.07-4.07 4 4 0 0 1 2.06.58L15.18 8.8a1.69 1.69 0 0 0-.5-.08 2 2 0 0 0-2 2 2.09 2.09 0 0 0 .07.51l-1.56 1.56a4.05 4.05 0 0 1-.58-2.07zm4.07 8.54A12.37 12.37 0 0 1 9 17.83l2.17-2.17a6 6 0 0 0 3.52 1.13 6.06 6.06 0 0 0 4.93-9.6l2.5-2.49a16.65 16.65 0 0 1 5 6c-2.64 5.3-7.38 8.56-12.44 8.56z"/></symbol>
<symbol id="female" viewBox="0 0 19 26.33"><title>female icon</title><path d="M19 9.5a9.5 9.5 0 1 0-10.51 9.44V22H6.16v2h2.33v2.33h2V24h2.32v-2h-2.32v-3A9.5 9.5 0 0 0 19 9.5zm-17 0A7.5 7.5 0 1 1 9.5 17 7.5 7.5 0 0 1 2 9.5z"/></symbol>
<symbol id="flag-report" viewBox="0 0 24 28"><title>flag-report icon</title><path d="M19.06 8.94L24 0H1a1 1 0 00-1 1v26a1 1 0 002 0v-9.94h22zM2 15V2h18.59l-3.84 7 3.68 6z"/></symbol>
<symbol id="frame" viewBox="0 0 27.94 22.67"><title>frame icon</title><path d="M19.62 5.37H8.22a1.91 1.91 0 0 0-1.9 1.91v8a1.9 1.9 0 0 0 1.9 1.89h11.3a1.89 1.89 0 0 0 1.9-1.89v-8a2.08 2.08 0 0 0-.5-1.3 1.59 1.59 0 0 0-1.3-.61zm.2 9.91a.09.09 0 0 1-.1.09H8.22s-.1 0-.1-.09v-8s0-.11.1-.11h11.4l.2.11zm7.8-11.8l.3-.5a2.36 2.36 0 0 0-.8-2.11 2 2 0 0 0-2.2-.2 4 4 0 0 1-3.7 0 5.79 5.79 0 0 0-5.4 0 4 4 0 0 1-3.7 0 5.79 5.79 0 0 0-5.4 0A4 4 0 0 1 3 .67a2.17 2.17 0 0 0-2.2.2A2.08 2.08 0 0 0 .12 3v.5c.2.5.3 1 .5 1.5a4.68 4.68 0 0 1 .3 2.8 8.75 8.75 0 0 0 0 7.09c.4.8.1 1.7-.3 2.8a8.8 8.8 0 0 0-.5 1.5l-.1.5a2.36 2.36 0 0 0 .8 2.11A2 2 0 0 0 3 22a4 4 0 0 1 3.7 0 5.43 5.43 0 0 0 2.7.69 5.3 5.3 0 0 0 2.5-.69 4 4 0 0 1 3.7 0 5.79 5.79 0 0 0 5.4 0 4 4 0 0 1 3.7 0 2.17 2.17 0 0 0 2.2-.2 2 2 0 0 0 .8-2.11l-.1-.5c-.2-.5-.3-1-.5-1.5a4.68 4.68 0 0 1-.3-2.8 8.75 8.75 0 0 0 0-7.09c-.4-.8-.1-1.71.3-2.8a8.8 8.8 0 0 0 .52-1.52zm-2.2 5a7 7 0 0 1 0 5.69c-.6 1.4-.1 2.81.3 4.11a6.19 6.19 0 0 1 .4 1.29l.1.5c0 .21 0 .3-.1.3s-.2.11-.3 0a5.79 5.79 0 0 0-5.4 0 4 4 0 0 1-3.7 0 5.79 5.79 0 0 0-5.4 0 4 4 0 0 1-3.7 0 5.44 5.44 0 0 0-2.7-.7 6.52 6.52 0 0 0-2.7.7c-.1.11-.2 0-.3 0a.41.41 0 0 1-.1-.3l.1-.5a9.19 9.19 0 0 1 .4-1.29c.4-1.3.9-2.71.3-4.11a7 7 0 0 1 0-5.69c.6-1.41.1-2.81-.3-4.11a6.1 6.1 0 0 1-.4-1.3l-.1-.5c0-.2 0-.29.1-.29s.2-.11.3 0a5.79 5.79 0 0 0 5.4 0 4 4 0 0 1 3.7 0 5.79 5.79 0 0 0 5.4 0 4 4 0 0 1 3.7 0 5.79 5.79 0 0 0 5.4 0c.1-.11.2 0 .3 0a.4.4 0 0 1 .1.29l-.1.5a8.9 8.9 0 0 1-.4 1.3c-.4 1.3-.9 2.7-.3 4.11z"/></symbol>
<symbol id="frame-wallart" viewBox="0 0 20.2 28.18"><title>frame-wallart icon</title><path d="M17.6 4.18L11.4.38a2.4 2.4 0 0 0-2.6 0l-6.1 3.8H0v24h20.2v-24zm-7.7-2.1a.42.42 0 0 1 .5 0l3.4 2.1H6.5zm8.3 24.2H2v-20h16.2z"/><path d="M16.4 24.38v-16H3.7v16zM5.7 10.48h8.7v12H5.7z"/></symbol>
<symbol id="font-type" viewBox="0 0 25.95 20"><title>font-type icon</title><path d="M11 2h6.21a.79.79 0 0 1 .79.79V6.2h2V2.78A2.78 2.78 0 0 0 17.17 0H2.78A2.78 2.78 0 0 0 0 2.78V6.2h2V2.78A.78.78 0 0 1 2.75 2H9v16H5.19v2h9.53v-2H11z"/><path d="M24 9h-7.15A1.88 1.88 0 0 0 15 10.86v2.21h2V11h2.47v7h-1.91v2h5.77v-2h-1.9v-7H24v2.11h2v-2.25A1.89 1.89 0 0 0 24 9z"/></symbol>
<symbol id="fullscreen-on" viewBox="0 0 19.98 19.99"><title>fullscreen-on icon</title><path d="M6.85 11.71L2 16.56v-2.58H0v6.01h6.01v-2H3.39l4.87-4.86-1.41-1.42zM13.96 0v2h2.59l-4.87 4.87 1.42 1.41 4.88-4.88v2.62h2V0h-6.02z"/></symbol>
<symbol id="gauge" viewBox="0 0 27.91 27.93"><title>gauge icon</title><path d="M26.1 6.93A14.12 14.12 0 0 0 7 1.83a13.88 13.88 0 0 0-6.5 8.5 13.62 13.62 0 0 0 1.4 10.6 14 14 0 0 0 12.1 7A13.31 13.31 0 0 0 20.9 26a13.88 13.88 0 0 0 6.5-8.5 14 14 0 0 0-1.3-10.57zM25.5 17a11.76 11.76 0 0 1-5.6 7.3A12 12 0 0 1 2.4 10.83 12.11 12.11 0 0 1 8 3.53a11.74 11.74 0 0 1 6-1.6 12.12 12.12 0 0 1 10.4 6A12 12 0 0 1 25.5 17z"/><path d="M4 12.93h2v2H4zM6.176 7.506L7.59 6.092l1.414 1.414L7.59 8.921zM22 12.93h2v2h-2zM13 3.93h2v2h-2zM15.2 11.23a2.66 2.66 0 0 0-1.2-.3 3 3 0 1 0 3 3 3.19 3.19 0 0 0-.3-1.4l5-5-1.4-1.4z"/></symbol>
<symbol id="gear" viewBox="0 0 27.39 27.37"><title>gear icon</title><path d="M26.16 13.71a4.65 4.65 0 0 1 .92-2.71l.31-.45-1.79-4.3-.54-.09a4.71 4.71 0 0 1-2.55-1.26 4.61 4.61 0 0 1-1.26-2.57l-.09-.55L16.86 0l-.45.32a4.41 4.41 0 0 1-5.41 0L10.54 0l-4.3 1.78-.1.55A4.66 4.66 0 0 1 4.89 4.9a4.64 4.64 0 0 1-2.56 1.26l-.54.09L0 10.57l.32.43a4.65 4.65 0 0 1 .92 2.69 4.64 4.64 0 0 1-.91 2.67l-.33.47 1.8 4.35.54.09a4.74 4.74 0 0 1 2.53 1.25A4.6 4.6 0 0 1 6.13 25l.1.53 4.37 1.81.44-.31a4.42 4.42 0 0 1 5.31 0l.45.31 4.36-1.81.1-.53A4.41 4.41 0 0 1 25 21.27l.54-.09 1.8-4.35-.31-.45a4.63 4.63 0 0 1-.87-2.67zm-1.05 3.35l-1 2.36a6.33 6.33 0 0 0-4.72 4.7l-2.39 1a6.28 6.28 0 0 0-6.64 0l-2.4-1a6.33 6.33 0 0 0-4.72-4.7l-1-2.36a6.44 6.44 0 0 0 1-3.35 6.44 6.44 0 0 0-1-3.37L3.22 8A6.46 6.46 0 0 0 6.3 6.32 6.49 6.49 0 0 0 8 3.21l2.3-1a6.32 6.32 0 0 0 6.79 0l2.3 1a6.49 6.49 0 0 0 1.7 3.11A6.51 6.51 0 0 0 24.17 8l1 2.33a6.4 6.4 0 0 0-1 3.37 6.52 6.52 0 0 0 .94 3.36z"/><path d="M13.7 8.67a5 5 0 1 0 5 5 5 5 0 0 0-5-5zm0 8a3 3 0 1 1 3-3 3 3 0 0 1-3 3z"/></symbol>
<symbol id="handshake" viewBox="0 0 27.18 25.5"><title>handshake icon</title><path d="M27 9.5a.85.85 0 0 0-1.2-.1l-.1.1-.3.3-1.21 1.2-5.1-5.1a3.16 3.16 0 0 0-4.9.1l-2.8 2.7a.85.85 0 0 1-.6.3.9.9 0 0 1-.9-.9.69.69 0 0 1 .3-.6l4.1-4.2a4.75 4.75 0 0 1 3.4-1.4h4.7a.9.9 0 0 0 .9-.9.91.91 0 0 0-.9-.9h-4.7a6.73 6.73 0 0 0-3.9 1.3 4.38 4.38 0 0 0-2.3-1 3.19 3.19 0 0 0-2.6 1L7.59.3a.85.85 0 0 0-1.2-.1.94.94 0 0 0-.1.1A.9.9 0 0 0 6 1a.89.89 0 0 0 .3.7l1.8 1.8a.83.83 0 0 0 1.19.1l.11-.1.7-.8a1.66 1.66 0 0 1 1.2-.5 2.57 2.57 0 0 1 1.1.4L8.89 6.1a2.72 2.72 0 0 0 3.8 3.9l2.7-2.7c.9-.9 1.5-.9 2.3-.1l6.4 6.4a.91.91 0 0 1 0 1.2.85.85 0 0 1-.6.3.68.68 0 0 1-.6-.3l-2.3-2.2a.92.92 0 0 0-1.3.06.9.9 0 0 0 0 1.24l3.4 3.4a.91.91 0 0 1 0 1.2.85.85 0 0 1-.6.3.82.82 0 0 1-.6-.3l-3-2.8a.92.92 0 0 0-1.36 1.3l.06.05 2.7 2.6a.77.77 0 0 1 .2.6.91.91 0 0 1-.3.6.71.71 0 0 1-.6.2.82.82 0 0 1-.6-.3l-1.9-1.9a.94.94 0 0 0-.7-.3 1.06 1.06 0 0 0-.7.3 1 1 0 0 0 0 1.4l1.8 1.8a.82.82 0 0 1 0 1.16.85.85 0 0 1-.6.3.82.82 0 0 1-.6-.3l-1.3-1.3-.1-.1a2.55 2.55 0 0 0-.1-1.9 2.76 2.76 0 0 0-1.5-1.5 2.05 2.05 0 0 0-.8-.2 2.74 2.74 0 0 0-2.6-2.7 2.53 2.53 0 0 0-.8-1.8 2.53 2.53 0 0 0-1.8-.8 2.81 2.81 0 0 0-2.7-2.6 2.69 2.69 0 0 0-1.7.6l-.9-1.1a.85.85 0 0 0-1.2-.1l-.1.1a1 1 0 0 0 0 1.4l1.2 1.2-.2.2a2.72 2.72 0 0 0-.06 3.85l.06.05a3.79 3.79 0 0 0 1.1.6 2.75 2.75 0 0 0 1.9 3.2 3.31 3.31 0 0 0 1.4.1 2.65 2.65 0 0 0 2.6 2h.4a2.74 2.74 0 0 0 2.6 2.1 2.73 2.73 0 0 0 1.9-.8l.2-.2 1.2 1.2a2.7 2.7 0 0 0 1.9.8 2.79 2.79 0 0 0 2.7-2.4 2.68 2.68 0 0 0 2.6-2.3h.1a2.67 2.67 0 0 0 2.7-2.64 2.75 2.75 0 0 0-.3-1.26 2.53 2.53 0 0 0 1.3-1.2 3 3 0 0 0 .2-2.1 2.48 2.48 0 0 0-.6-1.1l1.5-1.5c.6-.61.6-1.21.31-1.51zM10.39 19l-.2-.1-1.3 1.3a.85.85 0 0 1-.6.3h-.1c-.2 0-.3-.1-.5-.2a.83.83 0 0 1-.3-.6.69.69 0 0 1 .3-.6L9 17.8a.89.89 0 0 1 .6-.3 1.47 1.47 0 0 1 .6.2.76.76 0 0 1 .15 1.05 1.06 1.06 0 0 1-.15.15zm-5.3-5.2l-1.3 1.3a.91.91 0 0 1-1.2 0 .89.89 0 0 1 0-1.2l1.2-1.2a.75.75 0 0 1 1-.15l.21.15c.29.4.39.7.09 1.1zm-.6 3.3l1.9-1.9a.85.85 0 0 1 1.2.07.87.87 0 0 1 0 1.13l-1.9 1.9a.91.91 0 0 1-1.2 0l-.1-.1a.7.7 0 0 1 0-1 .58.58 0 0 1 .1-.1zm8.1 4.5l-.6.6a.85.85 0 0 1-.6.3.9.9 0 0 1-.9-.9.69.69 0 0 1 .3-.6l.6-.6a.85.85 0 1 1 1.27 1.13z"/></symbol>
<symbol id="heart-filled" viewBox="0 0 28.63 25.36"><title>heart-filled icon</title><path d="M14.32 25.36a1 1 0 0 1-.62-.21C13.22 24.77 2.1 15.93.3 9.58a7.15 7.15 0 0 1 1.27-6.52A8.16 8.16 0 0 1 8.33 0a7.86 7.86 0 0 1 6 3.75A7.85 7.85 0 0 1 20.3 0a8.2 8.2 0 0 1 6.77 3 7.13 7.13 0 0 1 1.26 6.52c-1.8 6.35-12.92 15.19-13.39 15.57a1.08 1.08 0 0 1-.62.27z"/></symbol>
<symbol id="image" viewBox="0 0 28.1 22"><title>image icon</title><path d="M11 10a2.5 2.5 0 1 0-2.5-2.5A2.5 2.5 0 0 0 11 10z"/><path d="M27.21.86A2.85 2.85 0 0 0 25.16 0H2.93A3 3 0 0 0 0 3v16a3 3 0 0 0 .85 2.11 2.87 2.87 0 0 0 2.08.89h22.21a3 3 0 0 0 2.93-3V3a3 3 0 0 0-.86-2.14zM2.93 2h22.23a.91.91 0 0 1 .64.27 1 1 0 0 1 .3.73v14.66L18 9.52l-6.61 6.67-4.08-2.94L2 18.56V3a1 1 0 0 1 .93-1zm22.21 18H3.39l4.13-4.13 4.07 2.94L18 12.35l7.5 7.55a.77.77 0 0 1-.36.1z"/></symbol>
<symbol id="image-upload" viewBox="0 0 28 29.4"><title>image-upload icon</title><path d="M16.6 6.3l-1.4-1.4L20 0l4.9 4.9-1.4 1.4L21 3.8v8.6h-2V3.8zM8 14.8a2.5 2.5 0 1 0 2.5-2.5A2.5 2.5 0 0 0 8 14.8zm20-3.5v15.2a2.9 2.9 0 0 1-2.9 2.9H3a3.23 3.23 0 0 1-2.1-.8 2.88 2.88 0 0 1-.9-2.1V11.3a2.9 2.9 0 0 1 2.9-2.9h14v2h-14a.9.9 0 0 0-.9.9v14.1l4.9-4.8 4.1 2.9 6.6-6.7 8.5 8.5V11.2a.86.86 0 0 0-.3-.6.91.91 0 0 0-.7-.3h-2.3v-2h2.3a2.88 2.88 0 0 1 2.1.9 3.23 3.23 0 0 1 .8 2.1zm-2.9 16l-7.6-7.7-6.4 6.5L7 23.2l-4 4.1z"/></symbol>
<symbol id="info-circle" viewBox="0 0 28 28"><title>info-circle icon</title><path d="M12 6a2 2 0 1 1 2 2 2 2 0 0 1-2-2zm3 15V10h-4v2h2v9H9.5v2h9v-2zm13-7a14 14 0 1 0-14 14 14 14 0 0 0 14-14zm-2 0A12 12 0 1 1 14 2a12 12 0 0 1 12 12z"/></symbol>
<symbol id="kid" viewBox="0 0 26.11 22.49"><title>kid icon</title><path d="M25.3,9.12a3,3,0,0,0-1.49-.84A11.24,11.24,0,0,0,4.75,3.57,11.14,11.14,0,0,0,3.48,5.2a11.46,11.46,0,0,0-.73,1.33,11.67,11.67,0,0,0-.63,1.75A2.93,2.93,0,0,0,.92,9a3,3,0,0,0-.11,4.17A2.91,2.91,0,0,0,2,13.91a11.25,11.25,0,0,0,19,5.18,11.1,11.1,0,0,0,1.42-1.78,12.47,12.47,0,0,0,.92-1.78,10.41,10.41,0,0,0,.5-1.52A2.95,2.95,0,0,0,25.3,9.12Zm-1.49,2.72a1,1,0,0,1-.71.25L22.22,12l-.16.87a8.93,8.93,0,0,1-.54,1.86,8.79,8.79,0,0,1-.76,1.46,9.25,9.25,0,0,1-16.9-3.36l-.14-.79-.81,0a.9.9,0,0,1-.65-.3.94.94,0,0,1,.68-1.59h.81l.17-.8a8.93,8.93,0,0,1,.65-2,8.31,8.31,0,0,1,.6-1.09,8.51,8.51,0,0,1,1-1.35A9.24,9.24,0,0,1,22,9.42l.18.87.88-.07a.93.93,0,0,1,1,1A.94.94,0,0,1,23.81,11.84Z"/><path d="M17.61,8.14A1.5,1.5,0,1,0,19.05,9.7,1.51,1.51,0,0,0,17.61,8.14Z"/><path d="M10.05,9.7A1.5,1.5,0,1,0,8.5,11.14,1.5,1.5,0,0,0,10.05,9.7Z"/><path d="M17.79,13.08a1,1,0,0,0-1.31.54A3.86,3.86,0,0,1,13.1,16a3.79,3.79,0,0,1-3.53-2,1,1,0,1,0-1.74,1,5.81,5.81,0,0,0,5.1,3h.25a5.83,5.83,0,0,0,5.15-3.61A1,1,0,0,0,17.79,13.08Z"/></symbol>
<symbol id="left-jump" viewBox="0 0 17.45 16.08"><title>left-jump icon</title><path d="M2.83 8l6.62 6.63L8 16.08 0 8l8-8 1.45 1.41zm14.62-6.59L16 0 8 8l8 8 1.41-1.41L10.83 8z"/></symbol>
<symbol id="male" viewBox="0 0 22 21.99"><title>male icon</title><path d="M16.17 0v2h2.45l-3.13 3.12a9.53 9.53 0 1 0 1.41 1.42L20 3.45v2.38h2V0zM9.5 20a7.5 7.5 0 1 1 7.5-7.5A7.51 7.51 0 0 1 9.5 20z"/></symbol>
<symbol id="map-pin" viewBox="0 0 20 24"><title>map-pin icon</title><path d="M10 0A10 10 0 0 0 0 10c0 7.4 9.1 13.6 9.4 13.8a1.42 1.42 0 0 0 .6.2 1.42 1.42 0 0 0 .6-.2c.3-.2 9.4-6.4 9.4-13.8A10 10 0 0 0 10 0zm0 21.8C8.1 20.4 2 15.4 2 10a8 8 0 0 1 16 0c0 5.4-6.1 10.4-8 11.8zM10 6a4 4 0 1 0 4 4 4 4 0 0 0-4-4zm0 6a2 2 0 1 1 2-2 2 2 0 0 1-2 2z"/></symbol>
<symbol id="move" viewBox="0 0 27.9 27.9"><title>move icon</title><path d="M23.61 9.73l-1.39 1.44 1.83 1.77h-9.04V3.79l1.84 1.78 1.39-1.44L13.97 0 9.82 4.29l1.44 1.39 1.75-1.81v9.07H3.83l1.74-1.8-1.44-1.39L0 14.03l4.29 4.14 1.39-1.44-1.85-1.79h9.18v9.1l-1.77-1.71-1.39 1.44 4.27 4.13 4.15-4.29-1.44-1.39-1.82 1.88v-9.16h9.08l-1.76 1.82 1.44 1.39 4.13-4.28-4.29-4.14z"/></symbol>
<symbol id="mug" viewBox="0 0 23.26 21.13"><title>mug icon</title><path d="M20.63 2.92h-2.81V0H0v19.62a1.57 1.57 0 0 0 1.62 1.51h14.82a1.36 1.36 0 0 0 1.38-1.51v-2.39h2.81a2.58 2.58 0 0 0 2.63-2.51V5.43a2.58 2.58 0 0 0-2.63-2.51zm-4.81 16.21H2V2h13.82zm5.44-4.41a.59.59 0 0 1-.63.51h-2.81V4.92h2.81a.58.58 0 0 1 .63.51z"/></symbol>
<symbol id="phonecase" viewBox="0 0 15.96 27.88"><title>phonecase icon</title><path d="M14 0H2a2 2 0 0 0-2 2v23.88a2 2 0 0 0 2 2h12a2 2 0 0 0 2-2V2a2 2 0 0 0-2-2zm0 25.88H2V2h12z"/><path d="M8 9a2 2 0 1 0-2-2 2 2 0 0 0 2 2z"/></symbol>
<symbol id="product-pile" viewBox="0 0 28.56 26.02"><title>product-pile icon</title><path d="M.28 24.02h28v2h-28zM.28 20.01h28v2h-28zM.28 16.02h28v2h-28zM25.06 0H3.48L0 14h28.56zm-6.18 2a4.9 4.9 0 0 1-4.6 3 4.88 4.88 0 0 1-4.59-3zM5.05 2h2.47a7.06 7.06 0 0 0 6.76 5A7.05 7.05 0 0 0 21 2h2.5L26 12H2.56z"/></symbol>
<symbol id="redo" viewBox="0 0 22.41 18.69"><title>redo icon</title><path d="M16.69 0l-1.41 1.41 3.27 3.28H7a7 7 0 0 0 0 14h4v-2H7a5 5 0 0 1 0-10h11.62L15.28 10l1.41 1.41 5.72-5.73z"/></symbol>
<symbol id="resize" viewBox="0 0 28 28"><title>resize icon</title><path d="M0 16.1V28h14V14H0zm2-.1h10v10H2zM24 0v2h2v2h2V0h-4zM8 0h4v2H8zM2 2h2V0H0v4h2V2zM0 8h2v4H0zM16 26h4v2h-4zM26 26h-2v2h4v-4h-2v2zM26 8h2v4h-2zM26 16h2v4h-2zM17 7h2.59l-5.3 5.29 1.42 1.42L21 8.41V11h2V5h-6v2zM16 0h4v2h-4z"/></symbol>
<symbol id="return-order" viewBox="0 0 25 27.9"><title>return-order icon</title><path d="M12.4 3a10.87 10.87 0 0 0-1.8.1l1.3-2L10.3 0 7.1 5l5 3.3 1.1-1.7-2.3-1.5a7.57 7.57 0 0 1 1.5-.1A10.5 10.5 0 1 1 2 15.4H0A12.5 12.5 0 1 0 12.4 3zm5.4 6.4H7.5l-2.3 3.7v7.2h14.9v-7.2zm-1.2 2l.9 1.5H7.7l.9-1.5zm-9.5 7v-3.5H18v3.5z"/></symbol>
<symbol id="right-jump" viewBox="0 0 17.45 16.08"><title>right-jump icon</title><path d="M14.62 8L8 1.41 9.41 0l8 8-8 8L8 14.67zM0 14.67l1.41 1.41 8-8-8-8L0 1.41 6.63 8z"/></symbol>
<symbol id="rotate" viewBox="0 0 20.89 21.83"><title>rotate icon</title><path d="M17.69 3.2a10.9 10.9 0 0 0-15.43 0L2 3.45V1H0v5.93h6v-2H3.35l.32-.32a8.92 8.92 0 1 1 12.61 12.61 8.92 8.92 0 0 1-12.61 0l-1.41 1.42A10.91 10.91 0 0 0 17.69 3.2z"/></symbol>
<symbol id="shield" viewBox="0 0 26 28"><title>shield icon</title><path d="M25.67 3.18a1 1 0 00-.77-.25A16.8 16.8 0 0113.62.21a1 1 0 00-1.24 0A16.87 16.87 0 011.1 2.93a1 1 0 00-.77.25 1 1 0 00-.33.74C0 14.47 1 24.24 12.7 28a.92.92 0 00.6 0C25 24.24 26 14.47 26 3.92a1 1 0 00-.33-.74zM13 26C4 23 2.11 16.25 2 5a19 19 0 0011-2.78A18.94 18.94 0 0024 5c-.11 11.25-2 18-11 21z"/><path d="M10.71 6.29a1 1 0 00-1.42 0l-5 5a1 1 0 000 1.42 1 1 0 001.42 0l5-5a1 1 0 000-1.42zM10.3 9.28l-3 3a1 1 0 000 1.42 1 1 0 00.7.3 1 1 0 00.71-.29l3-3a1 1 0 000-1.41 1 1 0 00-1.41-.02z"/></symbol>
<symbol id="sort" viewBox="0 0 18.42 17.93"><title>sort icon</title><path d="M13.21 14.11V.96h2v13.13l1.8-1.8 1.41 1.42-4.22 4.22-4.2-4.21 1.41-1.41 1.8 1.8zM5.21 3.82v13.14h-2V3.84l-1.8 1.79L0 4.22 4.22 0l4.2 4.2-1.41 1.42-1.8-1.8z"/></symbol>
<symbol id="sticker" viewBox="0 0 27.46 27.47"><title>sticker icon</title><path d="M27.42 10.08A14 14 0 000 14a14.09 14.09 0 0010 13.42 1 1 0 00.88-.15l.17-.17 16.05-16a1 1 0 00.32-1.02zM11.75 23.64c.54-5.52 6.28-11.26 11.8-11.8zM24.39 9.8a10.83 10.83 0 00-1.69.2c0-.08-.07-.18-.11-.26a1 1 0 00-1.83.74 17.31 17.31 0 00-10.4 10.36 1 1 0 00-.8 1.82l.31.13a11.24 11.24 0 00-.16 1.73v.74A12 12 0 0114 2a12.05 12.05 0 0111.22 7.82c-.22-.02-.55-.02-.83-.02z"/><path d="M7 17.21a1 1 0 10-1.8.79 10 10 0 001.07 1.85 1 1 0 00.8.4 1 1 0 00.6-.2 1 1 0 00.2-1.4A7.42 7.42 0 017 17.21zM5.37 14.88a1 1 0 001-1 7.88 7.88 0 01.21-1.68 1 1 0 00-1.95-.46 10 10 0 00-.26 2.12 1 1 0 001 1zM18.09 5.28a1 1 0 10-.85 1.81 7.66 7.66 0 011.44.91 1 1 0 00.61.21 1 1 0 00.62-1.78 9.22 9.22 0 00-1.82-1.15zM14 4.37a9.35 9.35 0 00-2.11.24 1 1 0 00.22 2 .82.82 0 00.22 0A7.34 7.34 0 0114 6.37a1 1 0 001-1 1 1 0 00-1-1zM8 6.45A9.73 9.73 0 006.5 8a1 1 0 00.15 1.4 1 1 0 00.63.23 1 1 0 00.78-.38A7.5 7.5 0 019.26 8 1 1 0 108 6.45z"/></symbol>
<symbol id="template" viewBox="0 0 30.82 25.94"><title>template icon</title><path d="M13.89 7.08a1.49 1.49 0 1 0 1.49 1.49 1.49 1.49 0 0 0-1.49-1.49z"/><path d="M22.79 0h-5.33v1a1.93 1.93 0 0 1-2 2 1.93 1.93 0 0 1-2-2V0H8L0 8l6 5.93 1.37-1.42V23a2.94 2.94 0 0 0 2.93 2.93h10.2A2.93 2.93 0 0 0 23.43 23V12.45l1.4 1.44 6-5.93zm-1.36 23a.93.93 0 0 1-.93.93H10.3a.93.93 0 0 1-.93-.93v-6.81l2.1-2.1 2.46 1.78 3.89-3.93 3.61 3.64zm0-15.48v5.21L17.82 9.1l-4.11 4.14-2.45-1.77-1.89 1.89V7.52L6 11.05 2.84 8l6-6h2.66a3.88 3.88 0 0 0 3.9 3 3.88 3.88 0 0 0 3.9-3H22l6 6-3.12 3.09z"/></symbol>
<symbol id="text" viewBox="0 0 27.87 28.01"><title>text icon</title><path d="M24.29 0H3.58A3.58 3.58 0 0 0 0 3.58v4.5h2v-4.5A1.58 1.58 0 0 1 3.58 2h9.3v24H7.5v2h12.88v-2h-5.5V2h9.41a1.58 1.58 0 0 1 1.58 1.58v4.5h2v-4.5A3.58 3.58 0 0 0 24.29 0z"/></symbol>
<symbol id="text-bold" viewBox="0 0 28.03 28.13"><title>text-bold icon</title><path d="M23.6 0H4.43A4.44 4.44 0 0 0 0 4.43v4.73h4V4.43A.43.43 0 0 1 4.43 4H12v20.13H6.86v4h14.45v-4H16V4h7.6a.43.43 0 0 1 .43.43v4.73h4V4.43A4.44 4.44 0 0 0 23.6 0z"/></symbol>
<symbol id="text-italic" viewBox="0 0 27.61 28"><title>text-italic icon</title><path d="M26.92 1.07A3.05 3.05 0 0 0 24.54 0H4.66a4.07 4.07 0 0 0-3.9 3.3L0 7.62 2 8l.76-4.32A2.07 2.07 0 0 1 4.66 2h8.76L9.3 26H4.07v2h12.37v-2h-5.11l4.12-24h9.09a1.09 1.09 0 0 1 .84.35 1.13 1.13 0 0 1 .21.95l-.76 4.32 2 .35.76-4.32a3.16 3.16 0 0 0-.67-2.58z"/></symbol>
<symbol id="trash-can" viewBox="0 0 24 27.91"><title>trash-can icon</title><path d="M7.045 21.528l.021-11.38 2 .004-.021 11.38zM10.972 21.529l.022-11.38 2 .003-.022 11.38zM15.05 21.529l.022-11.38 2 .003-.022 11.38z"/><path d="M24 3.66h-7.66a4.4 4.4 0 0 0-8.68 0H0v2h1.11v.29l1.66 18.56a3.73 3.73 0 0 0 3.76 3.4h10.94a3.73 3.73 0 0 0 3.76-3.4L22.87 6v-.29H24zm-4.76 20.68a1.76 1.76 0 0 1-1.77 1.57H6.53a1.76 1.76 0 0 1-1.77-1.57L3.12 5.78h17.75zM12 2a2.41 2.41 0 0 1 2.28 1.66H9.72A2.41 2.41 0 0 1 12 2z"/></symbol>
<symbol id="undo" viewBox="0 0 22.41 18.65"><title>undo icon</title><path d="M15.41 4.65H3.86L7.1 1.41 5.69 0 0 5.69l5.69 5.69L7.1 10 3.79 6.65h11.62a5 5 0 0 1 0 10h-4v2h4a7 7 0 1 0 0-14z"/></symbol>
<symbol id="weatherproof" viewBox="0 0 28 25.64"><title>weatherproof icon</title><path d="M26.9 8.68l-2 .2a1 1 0 00.1 2h.1l2-.2a1 1 0 00.9-1.1 1 1 0 00-1.1-.9zM23.59 7.15a1 1 0 00.58-.15l1.63-1.21a1 1 0 00.2-1.4 1 1 0 00-1.4-.22L23 5.34a1 1 0 00-.22 1.4 1 1 0 00.81.41zM20.09 4.55a1 1 0 00.41.09 1 1 0 00.92-.59l.82-1.84a1 1 0 10-1.82-.82l-.83 1.84a1 1 0 00.5 1.32zM16.57 4h.11a1 1 0 00.89-1.09l-.2-2a1 1 0 00-1.1-.9 1 1 0 00-.89 1.1l.2 2a1 1 0 00.99.89zM12 5a1 1 0 001.4.23 1 1 0 00.23-1.39l-1.14-1.65a1 1 0 00-1.4-.19 1 1 0 00-.22 1.39zM10 17.64a2 2 0 00-1.79 1.12C7 21.31 7 22.16 7 22.44a3.14 3.14 0 003 3.2 3.14 3.14 0 003.05-3.2c0-.28 0-1.13-1.25-3.68a2 2 0 00-1.8-1.12zm0 6a1.13 1.13 0 01-1-1.2 12.4 12.4 0 011-2.8 12.4 12.4 0 011.05 2.8 1.13 1.13 0 01-1.05 1.2z"/><path d="M23 10.88v-.23a5.65 5.65 0 00-9.6-4 7.45 7.45 0 00-2.17-.33 7.37 7.37 0 00-7.38 6.38A5.05 5.05 0 000 17.57a5.14 5.14 0 005.19 5.07 1 1 0 100-2A3.14 3.14 0 012 17.57a3.1 3.1 0 012.89-3 1 1 0 00.91-1 5.35 5.35 0 015.43-5.24 5.43 5.43 0 015.07 3.39 1 1 0 00.54.57 1.05 1.05 0 00.78 0 4.58 4.58 0 011.83-.38A4.48 4.48 0 0124 16.26a4.48 4.48 0 01-4.55 4.38h-4.59a1 1 0 000 2h4.59A6.48 6.48 0 0026 16.26a6.36 6.36 0 00-3-5.38zm-5.23-.8a7.28 7.28 0 00-2.33-2.51A3.72 3.72 0 0117.35 7a3.66 3.66 0 013.59 3 6.68 6.68 0 00-1.49-.18 6.89 6.89 0 00-1.7.26z"/></symbol>

<symbol id="behance" viewBox="0 0 28 17.55"><title>behance icon</title><path d="M8.12 0c3 0 5.51.83 5.51 4.27a3.7 3.7 0 0 1-2.35 3.59 4.15 4.15 0 0 1 3.14 4.36c0 3.5-2.94 5-6.07 5H0V0zm-.49 7c1.35 0 2.31-.59 2.31-2s-1.23-2-2.6-2H3.79v4zm.2 7.34c1.55 0 2.81-.55 2.81-2.28s-1.06-2.5-2.72-2.5H3.79v4.74zm16.92-.94h3a5.56 5.56 0 0 1-5.84 4.19c-3.94 0-6.39-2.66-6.39-6.54a6.28 6.28 0 0 1 6.41-6.65c3.91 0 6.07 3.08 6.07 6.77v.64h-9c0 2 1 3.19 3 3.19a2.85 2.85 0 0 0 2.75-1.64zM18.28 1.16v1.7h7v-1.7zM19 9.65h5.57A2.55 2.55 0 0 0 21.82 7 2.67 2.67 0 0 0 19 9.65z"/></symbol>
<symbol id="deviantart" viewBox="0 0 16 26"><title>deviantart icon</title><path d="M11.27 13.83l.37.48H16v6.49H8.08l-.69.47-2.22 4.26-.47.47H0v-4.73l4.73-9.11-.37-.47H0V5.2h7.92l.69-.47L10.83.47 11.3 0H16v4.73z"/></symbol>
<symbol id="messenger" viewBox="0 0 27.99 27.99"><title>messenger icon</title><path d="M14 0C6.11 0 0 5.78 0 13.58a13.26 13.26 0 0 0 4.4 10 1.13 1.13 0 0 1 .37.79l.08 2.49a1.12 1.12 0 0 0 1.57 1l2.78-1.19a1.18 1.18 0 0 1 .74-.06 15 15 0 0 0 4.06.54c7.88 0 14-5.77 14-13.57S21.88 0 14 0zm8.4 10.45L18.29 17a2.11 2.11 0 0 1-3 .56L12 15.08a.83.83 0 0 0-1 0l-4.44 3.35a.67.67 0 0 1-1-.88L9.7 11a2.12 2.12 0 0 1 3-.56l3.3 2.48a.84.84 0 0 0 1 0l4.42-3.35a.67.67 0 0 1 .98.88z"/></symbol>
<symbol id="tumblr" viewBox="0 0 15.07 25.7"><title>tumblr icon</title><path d="M11.73 21a5.3 5.3 0 0 0 2.06-.51l1.28 3.67c-.46.68-2.61 1.46-4.53 1.51-5.73.09-7.52-4-7.52-6.87v-8H0V7.1A7.83 7.83 0 0 0 5.18.18.18.18 0 0 1 5.36 0h3.85v6.5h4.9v4.4h-4.9v7.61A2.27 2.27 0 0 0 11.73 21z"/></symbol>
<symbol id="twitch" viewBox="0 0 24.87 26"><title>twitch icon</title><path d="M24.87 15.83l-6.78 6.78H13L9.61 26H6.22v-3.39H0V4.52L1.7 0h23.17zm-2.26-1.14V2.27H4v16.39h5.1v3.39l3.39-3.39h6.22zm-10.17-1.13h-2.27V6.78h2.27zm6.22 0h-2.27V6.78h2.27z"/></symbol>
<symbol id="vimeo" viewBox="0 0 25.43 22"><title>vimeo icon</title><path d="M20.23 15.27C16.76 19.75 13.86 22 11.45 22q-2.22 0-3.75-4.11c-.69-2.5-1.37-5-2.06-7.53-.75-2.73-1.58-4.09-2.45-4.09a7.64 7.64 0 0 0-2 1.19L0 5.92c1.25-1.1 2.48-2.23 3.72-3.31C5.37 1.14 6.64.41 7.48.33c2-.19 3.19 1.16 3.66 4.05.48 3.12.84 5.08 1 5.83.58 2.59 1.19 3.88 1.87 3.88s1.33-.82 2.41-2.51a9.94 9.94 0 0 0 1.7-3.84c.14-1.46-.42-2.17-1.7-2.17a5.14 5.14 0 0 0-1.89.4q1.88-6.13 7.17-6c2.61.08 3.84 1.79 3.69 5.1-.08 2.5-1.82 5.93-5.16 10.2z"/></symbol>
<symbol id="whatsapp" viewBox="0 0 27.88 28.02"><title>whatsapp icon</title><path d="M0 28l.26-1 .6-2.15.59-2.16c.16-.59.32-1.17.47-1.76a.3.3 0 0 0 0-.23 13.85 13.85 0 0 1-1.36-3.26 14 14 0 0 1 .18-7.69 13.91 13.91 0 0 1 22.12-6.57 13.84 13.84 0 0 1 3.9 5.16 14 14 0 0 1-10.38 19.24 13.77 13.77 0 0 1-8.89-1.4.5.5 0 0 0-.34 0l-2.56.67-2.26.6L.15 28zm3.33-3.28l.67-.15 3.45-.91a.52.52 0 0 1 .42.06A11.58 11.58 0 0 0 17.42 25a11 11 0 0 0 3.44-1.8 11.58 11.58 0 0 0 4.08-12.9 11.12 11.12 0 0 0-2.3-4 11.55 11.55 0 0 0-10.78-3.75 11.39 11.39 0 0 0-3.07 1 11.65 11.65 0 0 0-4.13 3.57A11.51 11.51 0 0 0 2.6 15.7a11.63 11.63 0 0 0 .67 2.46 11.81 11.81 0 0 0 1.14 2.17.36.36 0 0 1 0 .32c-.1.34-.19.68-.28 1L3.51 24z"/><path d="M9.79 7.49a.65.65 0 0 1 .61.37c.19.42.37.86.55 1.29l.65 1.57a.68.68 0 0 1 0 .59 4.27 4.27 0 0 1-.86 1.16c-.28.31-.31.45-.09.81a9.25 9.25 0 0 0 4.48 3.94l.3.13a.47.47 0 0 0 .63-.14c.36-.43.71-.85 1.05-1.29s.42-.42.83-.23c.75.34 1.49.7 2.24 1.06l.57.28a.43.43 0 0 1 .27.42 3.46 3.46 0 0 1-.29 1.55 2.27 2.27 0 0 1-.87.92 3.62 3.62 0 0 1-1.32.61 4.15 4.15 0 0 1-1.49.06 10.13 10.13 0 0 1-2.4-.75 12.91 12.91 0 0 1-5-3.71 15.75 15.75 0 0 1-2-2.72A5.48 5.48 0 0 1 7 11.46a3.87 3.87 0 0 1 .91-3.24 2.23 2.23 0 0 1 1.28-.74 3.53 3.53 0 0 1 .6.01z"/></symbol>


</svg>
