<svg xmlns="http://www.w3.org/2000/svg" viewBox="0 0 629.7 141.6"><defs><style>.cls-1{fill:#333;}</style></defs><g id="Layer_2" data-name="Layer 2"><g id="Layer_1-2" data-name="Layer 1"><g id="SPRD_Logo_Horizontal_Light" data-name="SPRD Logo Horizontal Light"><g id="Group_1194" data-name="Group 1194"><path id="Path_633" data-name="Path 633" class="cls-1" d="M60.8,62.6,39.5,41.3,0,80.8H0l60.8,60.8h0l60.8-60.8L82.1,41.3Zm0,60.8L18.2,80.8,39.5,59.5,60.8,80.8h0L82,59.6l21.3,21.3Z"/><path id="Path_634" data-name="Path 634" class="cls-1" d="M175.5,84a7.24,7.24,0,0,0-2.6-5,10.93,10.93,0,0,0-6.4-1.6,14.7,14.7,0,0,0-6.2,1,3.56,3.56,0,0,0,0,6.5,24.8,24.8,0,0,0,6.1,2.3c4.3,1.2,8,2.2,11,3.1a28.18,28.18,0,0,1,7.2,3,10.15,10.15,0,0,1,3.9,4.3,16.68,16.68,0,0,1,1.2,7,13.56,13.56,0,0,1-5.6,11.1c-3.7,2.9-9.3,4.4-16.6,4.4a40.45,40.45,0,0,1-9.8-1.2,23.37,23.37,0,0,1-7.5-3.5,16,16,0,0,1-4.8-5.5,17.8,17.8,0,0,1-1.8-7.2h13.6a6.32,6.32,0,0,0,2.8,5.5,12.51,12.51,0,0,0,7.3,1.9,14.73,14.73,0,0,0,6.5-1.2,3.75,3.75,0,0,0,2.7-3.6,4.34,4.34,0,0,0-2-4,21,21,0,0,0-6.1-2.1,83.3,83.3,0,0,1-11.8-3.4,22.39,22.39,0,0,1-6.9-3.9,9.87,9.87,0,0,1-3.3-4.7,18.36,18.36,0,0,1-.9-5.7,12.53,12.53,0,0,1,1.2-5.4,11.51,11.51,0,0,1,3.7-4.5,20,20,0,0,1,6.6-3.1,42.09,42.09,0,0,1,10-1.2c7.2,0,12.4,1.5,15.8,4.4s5.1,6.9,5.5,12.1l-12.8.2Zm88.9,34.8v-26c0-8.1,4-12.1,12.1-12.1a24,24,0,0,1,3.7.3V67.5h-1.7c-1.4,0-2.7.1-4,.2a12.56,12.56,0,0,0-3.8,1,13.93,13.93,0,0,0-3.7,2.2,16.4,16.4,0,0,0-3.4,4v-6H251.2v50Zm32.9-29.9a12.76,12.76,0,0,1,3.3-8.1,9.39,9.39,0,0,1,6.8-2.9,9.86,9.86,0,0,1,3.8.7,8.25,8.25,0,0,1,3.2,2,10.77,10.77,0,0,1,2.3,3.4,15.81,15.81,0,0,1,1,4.8l-20.4.1Zm34.1,8.4c0-10-2-17.4-6-22.4s-9.8-7.4-17.5-7.4a26,26,0,0,0-10.3,1.8,19.63,19.63,0,0,0-7.6,5.1,22.27,22.27,0,0,0-4.7,8,31.14,31.14,0,0,0-1.6,10.5c0,18.2,8.3,27.2,25,27.2a22.73,22.73,0,0,0,13.8-4.2,21.54,21.54,0,0,0,8.1-11.9H317a6.89,6.89,0,0,1-3.2,4.1,11.29,11.29,0,0,1-5.7,1.5,10.21,10.21,0,0,1-7.9-3.3,14.05,14.05,0,0,1-3.3-9Zm35.9,2.5a8.68,8.68,0,0,1-1,4.2,10.72,10.72,0,0,1-2.5,3.4,11.39,11.39,0,0,1-3.8,2.3,12.67,12.67,0,0,1-4.7.9c-4.3,0-6.4-1.9-6.4-5.6a6.24,6.24,0,0,1,2.1-5c1.4-1.1,4-2.1,7.8-2.8,2.4-.5,4.3-.9,5.6-1.3a7.48,7.48,0,0,0,2.9-1.6Zm13.3,19V87.2a29.82,29.82,0,0,0-1.1-8.4,14.91,14.91,0,0,0-3.6-6.2,15.67,15.67,0,0,0-6.6-3.8,33.93,33.93,0,0,0-10-1.3,35.27,35.27,0,0,0-10.2,1.3,16.77,16.77,0,0,0-6.7,3.6,13.63,13.63,0,0,0-3.8,5.6,24.71,24.71,0,0,0-1.3,7.1h12.3a9.33,9.33,0,0,1,2.5-5.4c1.3-1.4,3.5-2,6.6-2a12.26,12.26,0,0,1,6.2,1.4,4.64,4.64,0,0,1,.6,7.6c-1.1.8-3.4,1.4-6.7,1.9s-6.4,1-9.2,1.6a24.79,24.79,0,0,0-7.3,2.7,12.82,12.82,0,0,0-4.8,5,17,17,0,0,0-1.7,8.6,13.2,13.2,0,0,0,4,9.9c2.7,2.5,6.9,3.8,12.6,3.8a22.32,22.32,0,0,0,8.9-1.6,15.54,15.54,0,0,0,6.2-4.2,23.63,23.63,0,0,0,.8,4.5l12.3-.1Zm31-9.4a9.69,9.69,0,0,1-8.1-4.2c-2.1-2.8-3.1-6.5-3.1-10.9,0-10.3,3.8-15.4,11.4-15.5q11.1,0,11.1,16.2a16.33,16.33,0,0,1-3.2,10.4,10.48,10.48,0,0,1-8.1,4m23.6,9.4V50.5h-13V75.3a17.38,17.38,0,0,0-14.8-7.8,18.73,18.73,0,0,0-8.7,1.9,19.71,19.71,0,0,0-6.5,5.3,25,25,0,0,0-4,8.2,36.73,36.73,0,0,0-1.4,10.4,36.34,36.34,0,0,0,1.6,11.3,24.39,24.39,0,0,0,4.5,8.4,18.48,18.48,0,0,0,6.8,5.3,20,20,0,0,0,8.7,1.8c6.2,0,10.9-2.5,13.9-7.4l.1,6.1ZM219.7,78.3a9.69,9.69,0,0,1,8.1,4.2c2.1,2.8,3.1,6.5,3.1,10.9,0,10.3-3.8,15.4-11.4,15.5q-11.1,0-11.1-16.2a16.33,16.33,0,0,1,3.2-10.4,10.18,10.18,0,0,1,8.1-4m-23.6-9.5v68.3h13V112.3a17.38,17.38,0,0,0,14.8,7.8,18.73,18.73,0,0,0,8.7-1.9,19.71,19.71,0,0,0,6.5-5.3,25,25,0,0,0,4-8.2,36.73,36.73,0,0,0,1.4-10.4A36.34,36.34,0,0,0,242.9,83a24.39,24.39,0,0,0-4.5-8.4,18.48,18.48,0,0,0-6.8-5.3,20,20,0,0,0-8.7-1.8c-6.2,0-10.9,2.5-13.9,7.4l-.1-6.1ZM485.6,84a16.83,16.83,0,0,0-5.5-12.1c-3.3-2.9-8.6-4.4-15.8-4.4a33.84,33.84,0,0,0-10,1.2,20,20,0,0,0-6.6,3.1,11.51,11.51,0,0,0-3.7,4.5,12.53,12.53,0,0,0-1.2,5.4,18.36,18.36,0,0,0,.9,5.7,11.19,11.19,0,0,0,3.3,4.7,23.61,23.61,0,0,0,6.9,3.9,79.66,79.66,0,0,0,11.8,3.4,22.06,22.06,0,0,1,6.1,2.1,4.55,4.55,0,0,1,2,4,3.75,3.75,0,0,1-2.7,3.6,17.85,17.85,0,0,1-6.5,1.2,13.3,13.3,0,0,1-7.3-1.9,6.32,6.32,0,0,1-2.8-5.5H440.9a15.5,15.5,0,0,0,6.6,12.6A23.37,23.37,0,0,0,455,119a32.53,32.53,0,0,0,9.8,1.2c7.3,0,12.8-1.5,16.6-4.4a13.56,13.56,0,0,0,5.6-11.1,16.23,16.23,0,0,0-1.2-6.9,9.55,9.55,0,0,0-3.9-4.3,28.78,28.78,0,0,0-7.2-3c-3-.8-6.6-1.9-11-3.1a28.25,28.25,0,0,1-6.1-2.3,3.59,3.59,0,0,1-2.1-3.2,3.38,3.38,0,0,1,2.1-3.3,16.47,16.47,0,0,1,6.2-1c2.8,0,5,.5,6.4,1.6a7.67,7.67,0,0,1,2.6,5l12.8-.2Zm53.1,34.8V83.4q0-7.5-4.8-11.7c-3.2-2.8-7.4-4.2-12.5-4.2a20.36,20.36,0,0,0-9.1,2.2,16.55,16.55,0,0,0-3.4,2.5,9.73,9.73,0,0,0-2.2,3.1V50.5H493.5v68.3h13.2V90.1a14.87,14.87,0,0,1,.7-4.7,12,12,0,0,1,2-3.9,9.92,9.92,0,0,1,3.2-2.6,9.76,9.76,0,0,1,4.4-1q4.5,0,6.6,2.1c1.3,1.4,2,4,2,7.8v31Zm43.8,0v-26c0-8.1,4-12.1,12.1-12.1a24,24,0,0,1,3.7.3V67.5h-1.7c-1.4,0-2.7.1-4,.2a12.56,12.56,0,0,0-3.8,1,13.93,13.93,0,0,0-3.7,2.2,16.4,16.4,0,0,0-3.4,4v-6H569.3v50Zm47.2-10.1h-5.3c-2.7,0-4.7-.9-5.9-2.6a13.56,13.56,0,0,1-1.8-7.4V79.3h9.9V68h-9.9V50.7h-13v49.4a28.65,28.65,0,0,0,1.1,7.7,15.64,15.64,0,0,0,3.6,6.4,17.88,17.88,0,0,0,6.4,4.4,23.29,23.29,0,0,0,9.4,1.6h5.5Zm-82.4,10.1h13.2v-50H547.3Zm0-68.3h13.2V62.8H547.3Z"/></g></g><path class="cls-1" d="M167.52,26.6c0,4.1-.9,7.3-2.8,9.7a9.34,9.34,0,0,1-7.9,3.6,10,10,0,0,1-4.1-.8,7,7,0,0,1-3-2.4h-.1V49.9h-6.1V12H149l.4,3.3a9.11,9.11,0,0,1,3.1-2.8,9.41,9.41,0,0,1,4.3-1,9.08,9.08,0,0,1,7.9,3.9c1.8,2.6,2.8,6.2,2.8,10.6v.6Zm-6.1-.5a14.1,14.1,0,0,0-1.5-6.9,5,5,0,0,0-4.7-2.6,6.71,6.71,0,0,0-3.3.8,5.23,5.23,0,0,0-2.1,2.3V32.1a5,5,0,0,0,2.1,2.2,6.71,6.71,0,0,0,3.3.7,5.32,5.32,0,0,0,4.7-2.3,10.79,10.79,0,0,0,1.5-6.1Z"/><path class="cls-1" d="M171.72,25.4A15.16,15.16,0,0,1,175,15.3a11.44,11.44,0,0,1,9.2-3.9c4,0,7.1,1.3,9.3,3.8a15,15,0,0,1,3.3,10.1v.5a15,15,0,0,1-3.3,10.1,11.69,11.69,0,0,1-9.2,3.8c-4,0-7.1-1.3-9.3-3.8s-3.3-5.9-3.3-10.1Zm6.2.6a12.26,12.26,0,0,0,1.5,6.5,5.48,5.48,0,0,0,4.9,2.5,5.12,5.12,0,0,0,4.8-2.5,12.24,12.24,0,0,0,1.6-6.5v-.5a11.6,11.6,0,0,0-1.6-6.5,5.28,5.28,0,0,0-4.9-2.5,5.12,5.12,0,0,0-4.8,2.5,12.51,12.51,0,0,0-1.5,6.5Z"/><path class="cls-1" d="M209.92,29.9l.3,1.8h.1l.3-1.8L216,12h4.5l5.4,17.9.4,2.1h.1l.4-2.3,4-17.8h5.9l-7.5,27.3h-5L219,22.4l-.6-2.6h-.1l-.6,2.6-5.3,17h-5l-7.5-27.3h5.9Z"/><path class="cls-1" d="M252.62,39.9c-3.9,0-7-1.2-9.3-3.7a13.93,13.93,0,0,1-3.4-9.8v-1a14.45,14.45,0,0,1,3.4-10,10.4,10.4,0,0,1,8.6-3.8c3.8,0,6.6,1.1,8.5,3.3s2.9,5.2,2.9,9v3.6h-17.2a9.35,9.35,0,0,0,2,5.5,6,6,0,0,0,4.9,2,13.52,13.52,0,0,0,4.3-.6,15.44,15.44,0,0,0,3.4-1.7l1.8,4.2a12.64,12.64,0,0,1-4,2.2A21,21,0,0,1,252.62,39.9Zm-.8-23.4a4.78,4.78,0,0,0-3.8,1.8,9.54,9.54,0,0,0-1.9,4.7h11v-.7a6.49,6.49,0,0,0-1.3-4.3C255,17,253.72,16.5,251.82,16.5Z"/><path class="cls-1" d="M282.12,17.6l-2.9-.1a5.56,5.56,0,0,0-3,.7,4.63,4.63,0,0,0-1.8,2.1v19h-6.1V12h5.6l.4,3.8h.1a9.36,9.36,0,0,1,2.6-3.2,6,6,0,0,1,3.7-1.1,4.87,4.87,0,0,1,1.2.1c.4.1.7.1,1,.2Z"/><path class="cls-1" d="M297.92,39.9c-3.9,0-7-1.2-9.3-3.7a13.93,13.93,0,0,1-3.4-9.8v-1a14.45,14.45,0,0,1,3.4-10,10.4,10.4,0,0,1,8.6-3.8c3.8,0,6.6,1.1,8.5,3.3s2.9,5.2,2.9,9v3.6h-17.2a9.35,9.35,0,0,0,2,5.5,6,6,0,0,0,4.9,2,13.52,13.52,0,0,0,4.3-.6,15.44,15.44,0,0,0,3.4-1.7l1.8,4.2a12.64,12.64,0,0,1-4,2.2A20.53,20.53,0,0,1,297.92,39.9Zm-.7-23.4a4.78,4.78,0,0,0-3.8,1.8,9.54,9.54,0,0,0-1.9,4.7h11v-.7a6.49,6.49,0,0,0-1.3-4.3A4.92,4.92,0,0,0,297.22,16.5Z"/><path class="cls-1" d="M312.42,26.1c0-4.4.9-8,2.8-10.6a9.08,9.08,0,0,1,7.9-3.9,8.72,8.72,0,0,1,4,.9,10,10,0,0,1,3,2.5h.1V0h6.1V39.4H331l-.5-3.3a9.67,9.67,0,0,1-15.3.3,15.75,15.75,0,0,1-2.8-9.7v-.6Zm6.2.5a11.71,11.71,0,0,0,1.4,6.1,5.07,5.07,0,0,0,4.6,2.2,6.71,6.71,0,0,0,3.3-.8,5.74,5.74,0,0,0,2.2-2.4V19.8a7.28,7.28,0,0,0-2.2-2.4,5.66,5.66,0,0,0-3.2-.8,5.14,5.14,0,0,0-4.7,2.6,13.58,13.58,0,0,0-1.5,6.9v.5Z"/><path class="cls-1" d="M379.72,26.6c0,4.1-.9,7.3-2.7,9.7a9.34,9.34,0,0,1-7.9,3.6,8.68,8.68,0,0,1-4.4-1,8.87,8.87,0,0,1-3.1-3l-.5,3.5h-5.3V0h6.1V15.1h.1a8.33,8.33,0,0,1,3-2.6,8.85,8.85,0,0,1,4.1-.9,9.26,9.26,0,0,1,8,3.9c1.8,2.6,2.7,6.2,2.7,10.6v.5Zm-6.1-.5a14.79,14.79,0,0,0-1.4-6.9,5,5,0,0,0-4.7-2.6,5.93,5.93,0,0,0-3.4.9,6.75,6.75,0,0,0-2.2,2.5V31.5a6.75,6.75,0,0,0,2.2,2.5,6.16,6.16,0,0,0,3.4.9,5.14,5.14,0,0,0,4.7-2.2,11.71,11.71,0,0,0,1.4-6.1Z"/><path class="cls-1" d="M393.82,28.4l.6,2.9h.1l6-19.2h6.7l-11.3,31.5a14.38,14.38,0,0,1-3,4.9,7.65,7.65,0,0,1-5.6,2,10,10,0,0,1-1.6-.2,10.46,10.46,0,0,1-1.7-.4l.7-4.7a3.44,3.44,0,0,1,.9.1c.4,0,.7.1.9.1a3.84,3.84,0,0,0,2.6-.8,9.45,9.45,0,0,0,1.7-3l1-2.5-9.9-27h6.7Z"/></g></g></svg>