<?xml version="1.0" encoding="utf-8"?>
<!-- Generator: Adobe Illustrator 20.1.0, SVG Export Plug-In . SVG Version: 6.00 Build 0)  -->
<!DOCTYPE svg PUBLIC "-//W3C//DTD SVG 1.1//EN" "http://www.w3.org/Graphics/SVG/1.1/DTD/svg11.dtd">
<svg version="1.1" id="Ebene_1" xmlns="http://www.w3.org/2000/svg" xmlns:xlink="http://www.w3.org/1999/xlink" x="0px" y="0px"
	 viewBox="0 0 143.2 143.5" style="enable-background:new 0 0 143.2 143.5;" xml:space="preserve">
<style type="text/css">
	.st0{fill:#EFEEEC;}
	.st1{fill:#CFCDCD;}
	.st2{fill:#FFFFFF;}
	.st3{fill:none;stroke:#413231;stroke-width:3;stroke-linecap:round;stroke-linejoin:round;stroke-miterlimit:10;}
	.st4{fill:#13B1A5;}
	.st5{fill:#00867D;}
	.st6{fill:#C2C1C1;}
	.st7{fill:#413231;}
	.st8{display:none;}
	.st9{display:inline;fill:#EFEEEC;}
	.st10{display:inline;fill:#CFCDCD;}
	.st11{display:inline;}
	.st12{display:inline;fill:#00867D;}
	.st13{fill:#1DB2A6;}
	.st14{clip-path:url(#SVGID_2_);}
	.st15{fill:#EFEEEE;}
	.st16{clip-path:url(#SVGID_4_);}
	.st17{clip-path:url(#SVGID_6_);}
	.st18{clip-path:url(#SVGID_8_);}
	.st19{display:inline;fill:#FFFFFF;}
	.st20{display:inline;fill:#13B1A5;}
</style>
<g id="_x31_">
	<circle class="st0" cx="71.8" cy="72" r="70.8"/>
	<g>
		<path class="st1" d="M123.9,105.2l-21.4-21.4L98,88.3l0,0l-2.3,2.3l-6.7,6.7l21.4,21.4c0.7,0.7,1.8,0.7,2.4,0l11-11
			C124.6,107,124.6,105.9,123.9,105.2z"/>
		<polygon class="st1" points="102.5,83.8 91.2,80.8 91.2,80.8 84.1,78.8 86,86 86,86 89,97.2 		"/>
	</g>
	<path class="st1" d="M92.9,110.8H33.2c-1.5,0-2.6-1.2-2.6-2.6V27c0-1.5,1.2-2.6,2.6-2.6h59.7c1.5,0,2.6,1.2,2.6,2.6v81.2
		C95.5,109.6,94.3,110.8,92.9,110.8z"/>
	<path class="st2" d="M89.9,113.8H30.2c-1.5,0-2.6-1.2-2.6-2.6V30c0-1.5,1.2-2.6,2.6-2.6h59.7c1.5,0,2.6,1.2,2.6,2.6v81.2
		C92.5,112.6,91.3,113.8,89.9,113.8z"/>
	<path class="st0" d="M32.5,110.7h54.8c1.3,0,2.2-0.6,2.2-1.9V55.1l-59,35.5v18.1C30.5,110.1,31.2,110.7,32.5,110.7z"/>
	<line class="st3" x1="38.5" y1="53.2" x2="67.5" y2="53.2"/>
	<line class="st3" x1="38.5" y1="69.2" x2="67.5" y2="69.2"/>
	<line class="st3" x1="38.5" y1="84.2" x2="67.5" y2="84.2"/>
	<polyline class="st3" points="73.8,51.3 77.5,55 84,48.5 	"/>
	<polyline class="st3" points="73.8,67.3 77.5,71 84,64.5 	"/>
	<g id="stift_2_">
		<path class="st4" d="M108.5,121.7l-21.4-21.4l13.4-13.4l21.4,21.4c0.7,0.7,0.7,1.8,0,2.4l-11,11
			C110.2,122.4,109.1,122.4,108.5,121.7z"/>
		
			<rect x="89.1" y="101.7" transform="matrix(0.707 0.7072 -0.7072 0.707 104.9602 -43.5902)" class="st5" width="32" height="6.4"/>
		<polygon class="st6" points="82.1,81.8 100.5,86.8 87,100.2 		"/>
		<polygon class="st7" points="82.1,81.8 89.2,83.8 84,89 		"/>
	</g>
</g>
<g id="_x32_" class="st8">
	<circle class="st9" cx="71.4" cy="72" r="70.8"/>
	<path class="st10" d="M48.3,101.5H37.8c-1.3,0-2.4-1.1-2.4-2.4V46c0-1.3,1.1-2.4,2.4-2.4h10.5c1.3,0,2.4,1.1,2.4,2.4v53.1
		C50.7,100.4,49.6,101.5,48.3,101.5z"/>
	<path class="st10" d="M116,113.5H58.4c-1.3,0-2.4-1.1-2.4-2.4V64c0-1.3,1.1-2.4,2.4-2.4H116c1.3,0,2.4,1.1,2.4,2.4v47.1
		C118.3,112.4,117.3,113.5,116,113.5z"/>
	<g class="st11">
		<path class="st1" d="M46.5,35.8c1.1-0.2,2.1-0.1,3.2,0c2.2,0.2,4.5,0.4,6.7,0.9c2.6,0.6,5.1,1.6,7.4,2.9c3.3,1.9,6.2,4.6,9.8,6.1
			c2.4,1,5,1.5,7.6,1.8c7.6,0.9,15.7,0.3,22.5-3.3c6.8-3.6,11.8-10.6,11.4-17.9c-0.2-3.9-2.2-7.8-5.7-9.7c-2.5-1.3-5.7-1.5-8.4-0.4
			s-4.8,3.4-5.6,6c-0.4,1.2-0.5,2.4-1,3.5c-0.8,1.5-2.3,2.5-3.7,3.4c-1.7,1-3.4,2-5.4,2.3c-2.8,0.4-5.6-0.6-8.1-1.9
			c-2.5-1.3-4.7-3-7.3-4.1c-5.5-2.3-12-1.7-17.8,0.2c-1.8,0.6-3.6,1.3-5.2,2.3c-2.1,1.2-3.9,2.7-5.1,4.7c-0.9,1.5-1.3,3.2-1.2,4.8
			c0,0.4,0.2,0.9,0.6,1c0.2,0.1,0.5,0,0.7-0.1c0.8-0.4,1.4-1,2-1.6c0.6-0.6,1.6-1,2.4-1.2C46.3,35.9,46.4,35.8,46.5,35.8z"/>
	</g>
	<path class="st12" d="M53.7,116.5H29.4c-1.3,0-2.4-1.1-2.4-2.4V95c0-1.3,1.1-2.4,2.4-2.4h24.3c1.3,0,2.4,1.1,2.4,2.4v19.1
		C56.1,115.4,55,116.5,53.7,116.5z"/>
	<path class="st12" d="M45.1,95.3H34.5c-1.3,0-2.4-1.1-2.4-2.4V48.8c0-1.3,1.1-2.4,2.4-2.4h10.5c1.3,0,2.4,1.1,2.4,2.4v44.2
		C47.4,94.2,46.4,95.3,45.1,95.3z"/>
	<g class="st11">
		<path class="st13" d="M112.5,116.5H54.9c-1.3,0-2.4-1.1-2.4-2.4V67c0-1.3,1.1-2.4,2.4-2.4h57.6c1.3,0,2.4,1.1,2.4,2.4v47.1
			C114.8,115.4,113.8,116.5,112.5,116.5z"/>
		<g>
			<path class="st2" d="M65.3,92.6H63c-1.3,0-2.4-1.1-2.4-2.4V73c0-1.3,1.1-2.4,2.4-2.4h2.3c1.3,0,2.4,1.1,2.4,2.4v17.3
				C67.6,91.6,66.6,92.6,65.3,92.6z"/>
			<path class="st2" d="M77.5,92.6h-2.3c-1.3,0-2.4-1.1-2.4-2.4V73c0-1.3,1.1-2.4,2.4-2.4h2.3c1.3,0,2.4,1.1,2.4,2.4v17.3
				C79.9,91.6,78.8,92.6,77.5,92.6z"/>
			<path class="st2" d="M89.7,92.6h-2.3c-1.3,0-2.4-1.1-2.4-2.4V73c0-1.3,1.1-2.4,2.4-2.4h2.3c1.3,0,2.4,1.1,2.4,2.4v17.3
				C92.1,91.6,91,92.6,89.7,92.6z"/>
			<path class="st2" d="M102,92.6h-2.3c-1.3,0-2.4-1.1-2.4-2.4V73c0-1.3,1.1-2.4,2.4-2.4h2.3c1.3,0,2.4,1.1,2.4,2.4v17.3
				C104.3,91.6,103.3,92.6,102,92.6z"/>
		</g>
		<g>
			<defs>
				<polygon id="SVGID_1_" points="120.7,156.8 -24.4,134.1 114.2,51.6 136.6,58.6 				"/>
			</defs>
			<clipPath id="SVGID_2_">
				<use xlink:href="#SVGID_1_"  style="overflow:visible;"/>
			</clipPath>
			<g class="st14">
				<path class="st15" d="M65.3,92.6H63c-1.3,0-2.4-1.1-2.4-2.4V73c0-1.3,1.1-2.4,2.4-2.4h2.3c1.3,0,2.4,1.1,2.4,2.4v17.3
					C67.6,91.6,66.6,92.6,65.3,92.6z"/>
			</g>
		</g>
		<g>
			<defs>
				<polygon id="SVGID_3_" points="133,156.8 -12.2,134.1 126.5,51.6 148.8,58.6 				"/>
			</defs>
			<clipPath id="SVGID_4_">
				<use xlink:href="#SVGID_3_"  style="overflow:visible;"/>
			</clipPath>
			<g class="st16">
				<path class="st15" d="M77.5,92.6h-2.3c-1.3,0-2.4-1.1-2.4-2.4V73c0-1.3,1.1-2.4,2.4-2.4h2.3c1.3,0,2.4,1.1,2.4,2.4v17.3
					C79.9,91.6,78.8,92.6,77.5,92.6z"/>
			</g>
		</g>
		<g>
			<defs>
				<polygon id="SVGID_5_" points="145.2,156.8 0,134.1 138.7,51.6 161.1,58.6 				"/>
			</defs>
			<clipPath id="SVGID_6_">
				<use xlink:href="#SVGID_5_"  style="overflow:visible;"/>
			</clipPath>
			<g class="st17">
				<path class="st15" d="M89.7,92.6h-2.3c-1.3,0-2.4-1.1-2.4-2.4V73c0-1.3,1.1-2.4,2.4-2.4h2.3c1.3,0,2.4,1.1,2.4,2.4v17.3
					C92.1,91.6,91,92.6,89.7,92.6z"/>
			</g>
		</g>
		<g>
			<defs>
				<polygon id="SVGID_7_" points="157.4,156.8 12.3,134.1 150.9,51.6 173.3,58.6 				"/>
			</defs>
			<clipPath id="SVGID_8_">
				<use xlink:href="#SVGID_7_"  style="overflow:visible;"/>
			</clipPath>
			<g class="st18">
				<path class="st15" d="M102,92.6h-2.3c-1.3,0-2.4-1.1-2.4-2.4V73c0-1.3,1.1-2.4,2.4-2.4h2.3c1.3,0,2.4,1.1,2.4,2.4v17.3
					C104.3,91.6,103.3,92.6,102,92.6z"/>
			</g>
		</g>
	</g>
	<g class="st11">
		<path class="st2" d="M44.7,38c1-0.2,2.1-0.1,3.1,0c2.2,0.3,4.4,0.4,6.5,1c2.5,0.6,4.9,1.7,7.1,3c3.2,2,6,4.7,9.5,6.3
			c2.3,1.1,4.9,1.6,7.4,1.9c7.4,1,15.2,0.4,21.7-3.2s11.4-10.7,10.9-18.1c-0.2-3.9-2.1-7.9-5.6-9.9c-2.4-1.4-5.5-1.5-8.1-0.5
			c-2.6,1.1-4.6,3.4-5.4,6.1c-0.3,1.2-0.4,2.5-1,3.6c-0.7,1.5-2.2,2.5-3.6,3.4c-1.6,1-3.3,2-5.2,2.3c-2.7,0.4-5.5-0.6-7.8-2
			c-2.4-1.4-4.6-3.1-7.1-4.2C61.8,25.5,55.5,26.1,50,28c-1.7,0.6-3.4,1.3-5,2.3c-2,1.3-3.8,2.7-4.9,4.8c-0.8,1.5-1.3,3.2-1.2,4.9
			c0,0.4,0.2,0.9,0.6,1.1c0.2,0.1,0.5,0,0.7-0.1c0.8-0.4,1.3-1,1.9-1.6c0.6-0.6,1.5-1,2.3-1.2C44.5,38.1,44.6,38,44.7,38z"/>
	</g>
	<path class="st19" d="M85.6,41.9"/>
</g>
<g id="_x33_" class="st8">
	<circle class="st9" cx="71.7" cy="71.6" r="70.8"/>
	<path class="st10" d="M117.7,81.3H115c-0.3,0-0.5-0.5-0.6-0.8L109,56.1c-0.1-0.4-0.3-0.8-0.6-0.8H87.9c-0.8,0-1.5,1-1.5,1.9v31.9
		c0,0.5,0.3,1.2,0.6,1.2h1.4h28.9c0,0,1.1,0,1.1-1.2v-7.1C118.3,81.6,118.1,81.3,117.7,81.3z"/>
	<path class="st10" d="M83.3,46.3H30.5c-0.6,0-1.2,0.5-1.2,1.2v42c0,1,0.8,1.8,1.8,1.8h51.7c0.8,0,1.5-0.7,1.5-1.5V47.4
		C84.3,46.8,83.9,46.3,83.3,46.3z"/>
	<path class="st10" d="M34.8,97.2h-5.6c-0.7,0-1.3-0.6-1.3-1.3v-1.6c0-0.7,0.6-1.3,1.3-1.3h5.6c0.7,0,1.3,0.6,1.3,1.3v1.6
		C36.1,96.6,35.5,97.2,34.8,97.2z"/>
	<circle class="st10" cx="47" cy="93.8" r="9.3"/>
	<circle class="st10" cx="98.1" cy="93.8" r="9.3"/>
	<path class="st10" d="M118.2,97.2h-8.9c-0.7,0-1.3-0.6-1.3-1.3v-1.6c0-0.7,0.6-1.3,1.3-1.3h8.9c0.7,0,1.3,0.6,1.3,1.3v1.6
		C119.5,96.6,118.9,97.2,118.2,97.2z"/>
	<path class="st10" d="M84.7,97.2H59.4c-0.9,0-1.6-0.7-1.6-1.6v-1.1c0-0.9,0.7-1.6,1.6-1.6h25.3c0.9,0,1.6,0.7,1.6,1.6v1.1
		C86.2,96.5,85.5,97.2,84.7,97.2z"/>
	<path class="st12" d="M114.7,83.3h-2.8c-0.3,0-0.5-0.5-0.6-0.8L106,58.1c-0.1-0.4-0.3-0.8-0.6-0.8H84.8c-0.8,0-1.5,1-1.5,1.9v31.9
		c0,0.5,0.3,1.2,0.6,1.2h1.4c0,0,0.2,0,0.2-0.3c0.9-4.9,5-8,10.4-8c5.4,0,9.5,3.1,10.4,7.9c0,0.2,0.2,0.4,0.5,0.4h7.3
		c0,0,1.1,0,1.1-1.2v-7.1C115.3,83.6,115.1,83.3,114.7,83.3z"/>
	<polygon class="st19" points="94.4,62.3 94.4,74 105.2,74 102.4,62.3 	"/>
	<path class="st20" d="M80.3,48.3H27.5c-0.6,0-1.2,0.5-1.2,1.2v42c0,1,0.8,1.8,1.8,1.8h5.4c0.4,0,0.7-0.3,0.7-0.6
		c1-4.8,4.7-9,10.7-9c6,0,9.7,4.2,10.8,9c0.1,0.4,0.4,0.6,0.7,0.6h6h7.3h10.1c0.8,0,1.5-0.7,1.5-1.5V49.4
		C81.3,48.8,80.8,48.3,80.3,48.3z"/>
	<circle class="st12" cx="45" cy="94.8" r="9.3"/>
	<circle class="st19" cx="45" cy="94.8" r="4"/>
	<circle class="st12" cx="96.1" cy="94.8" r="9.3"/>
	<circle class="st19" cx="96" cy="94.8" r="4"/>
	<path class="st12" d="M33,98.5h-5.6c-0.7,0-1.3-0.6-1.3-1.3v-1.6c0-0.7,0.6-1.3,1.3-1.3H33c0.7,0,1.3,0.6,1.3,1.3v1.6
		C34.3,98,33.7,98.5,33,98.5z"/>
	<path class="st12" d="M116.3,98.5h-8.9c-0.7,0-1.3-0.6-1.3-1.3v-1.6c0-0.7,0.6-1.3,1.3-1.3h8.9c0.7,0,1.3,0.6,1.3,1.3v1.6
		C117.6,98,117,98.5,116.3,98.5z"/>
	<path class="st12" d="M82.8,98.5H57.5c-0.9,0-1.6-0.7-1.6-1.6v-1.1c0-0.9,0.7-1.6,1.6-1.6h25.3c0.9,0,1.6,0.7,1.6,1.6V97
		C84.3,97.8,83.6,98.5,82.8,98.5z"/>
	<polygon class="st9" points="104,72.7 102.7,67.1 95.2,72.7 	"/>
	<path class="st9" d="M95.8,98.3c2,0,3.6-1.6,3.6-3.6c0-0.9-0.3-1.7-0.9-2.4l-5.7,4.4C93.5,97.7,94.6,98.3,95.8,98.3z"/>
	<path class="st9" d="M44.8,98.3c2,0,3.6-1.6,3.6-3.6c0-0.9-0.3-1.7-0.9-2.4l-5.7,4.4C42.5,97.7,43.6,98.3,44.8,98.3z"/>
</g>
</svg>
